<?xml version="1.0" standalone="no"?>
<!DOCTYPE svg PUBLIC "-//W3C//DTD SVG 20010904//EN"
 "http://www.w3.org/TR/2001/REC-SVG-20010904/DTD/svg10.dtd">
<svg version="1.0" xmlns="http://www.w3.org/2000/svg"
 width="804.000000pt" height="804.000000pt" viewBox="0 0 804.000000 804.000000"
 preserveAspectRatio="xMidYMid meet">
<metadata>
Created by potrace 1.14, written by Peter Selinger 2001-2017
</metadata>
<g transform="translate(0.000000,804.000000) scale(0.100000,-0.100000)"
fill="#000000" stroke="none">
<path d="M2170 7667 c0 -4 -5 -5 -12 -1 -8 5 -8 3 -2 -7 8 -12 14 -76 14 -146
0 -17 6 -23 23 -23 21 1 22 1 3 15 -11 8 -16 15 -10 15 23 -1 37 -21 38 -57 1
-32 4 -38 23 -37 12 0 20 -3 17 -8 -3 -4 -13 -8 -24 -8 -13 0 -17 -5 -13 -20
6 -22 18 -26 28 -10 3 6 12 10 18 10 7 0 6 -4 -3 -10 -13 -8 -12 -10 4 -10 16
0 17 -2 5 -17 -8 -9 -9 -14 -3 -11 9 6 14 -14 14 -69 0 -19 6 -23 30 -23 30 0
30 0 30 -59 0 -57 1 -59 30 -64 17 -4 30 -11 30 -17 0 -6 -6 -8 -12 -4 -8 5
-7 0 2 -11 8 -10 10 -16 3 -12 -6 4 -15 2 -19 -4 -4 -7 -3 -9 4 -5 14 9 25
-11 24 -45 0 -16 4 -31 9 -34 8 -5 13 7 11 26 -1 3 6 6 13 6 11 0 12 -4 4 -13
-6 -8 -6 -14 0 -18 5 -3 12 0 14 6 3 7 6 -16 6 -52 1 -56 4 -67 24 -79 20 -13
21 -13 9 2 -12 14 -11 16 8 14 17 -1 21 -7 18 -32 l-3 -30 1458 -2 c801 -1
1455 2 1452 7 -3 4 2 13 10 20 8 7 12 16 9 21 -3 5 0 9 6 9 6 0 8 5 4 11 -4 8
-1 8 14 0 14 -7 19 -17 16 -29 -5 -14 -4 -14 4 -2 6 8 8 18 6 22 -3 4 -1 8 5
8 5 0 8 12 6 28 -1 15 2 30 9 34 8 6 8 8 0 8 -19 0 -3 48 18 53 19 5 19 5 1
-15 -18 -21 -18 -21 5 -7 14 9 23 25 24 44 2 48 3 53 10 60 4 4 4 13 1 21 -4
12 16 19 48 16 3 0 6 26 7 59 4 128 3 124 23 101 9 -12 20 -18 24 -14 5 4 5 1
1 -6 -4 -7 -11 -10 -16 -7 -5 3 -11 1 -15 -5 -3 -6 4 -9 17 -8 18 1 24 8 24
24 0 13 -3 21 -7 18 -4 -2 -11 0 -14 6 -4 6 -3 10 2 9 23 -4 29 3 25 31 -4 30
5 36 46 31 6 -1 12 3 12 9 0 5 -4 10 -10 10 -5 0 -10 5 -10 11 0 5 5 7 12 3 7
-4 8 -3 4 5 -4 6 -16 9 -26 6 -10 -3 -21 -2 -23 3 -3 4 8 8 25 7 l31 0 1 60
c1 33 4 58 7 55 3 -3 14 2 25 10 18 14 18 14 5 -2 -9 -13 -10 -18 -2 -18 7 0
9 -5 5 -11 -4 -8 -9 -7 -16 2 -7 11 -8 10 -4 -4 4 -12 2 -16 -6 -11 -7 4 -8 3
-4 -5 6 -9 11 -9 21 -1 9 8 14 8 17 0 2 -6 5 31 6 82 l3 93 -245 0 c-135 0
-248 -4 -252 -7 -3 -4 -14 -4 -23 0 -31 14 -111 0 -111 -19 0 -6 5 -7 10 -4 6
3 10 -1 10 -10 0 -10 -5 -14 -12 -9 -10 5 -10 4 -1 -6 10 -11 9 -16 -4 -25
-13 -10 -14 -15 -4 -31 10 -15 11 -15 7 -2 -3 10 -1 20 3 22 5 3 8 -3 7 -14 0
-11 -4 -20 -8 -20 -5 0 -13 0 -18 0 -6 0 -9 3 -9 8 3 16 -1 32 -9 32 -4 0 -8
-33 -9 -72 -1 -40 -2 -89 -4 -109 l-2 -35 -89 -1 c-77 -1 -89 1 -87 15 4 42
-1 50 -26 47 -14 -1 -28 3 -32 9 -3 6 -3 8 2 4 4 -4 17 -3 28 3 15 9 18 8 12
-3 -5 -7 -4 -9 0 -5 14 12 15 39 2 34 -18 -8 -43 -14 -34 -10 4 3 4 10 0 16
-17 28 -11 62 14 74 20 10 22 9 14 -1 -6 -7 -7 -17 -3 -21 4 -5 -2 -5 -12 -1
-15 5 -17 4 -8 -7 7 -8 9 -17 5 -20 -3 -4 0 -7 8 -7 11 0 11 -2 -1 -10 -8 -5
-10 -10 -5 -10 6 0 17 5 25 10 11 7 11 10 2 10 -8 0 -10 5 -5 13 10 17 12 57
1 63 -4 3 -8 10 -8 15 0 6 4 8 8 5 5 -3 9 1 9 8 0 8 -8 11 -19 8 -10 -2 -18 1
-18 7 0 6 -6 11 -14 11 -8 0 -12 8 -9 23 l4 22 -208 -1 c-114 -1 -212 -3 -218
-4 -5 -1 -22 -1 -36 0 -26 1 -26 0 -27 -59 0 -34 4 -61 9 -61 5 0 8 3 7 8 -1
4 4 20 11 36 6 16 9 31 6 34 -2 3 -9 -6 -14 -19 l-10 -24 2 27 c1 15 4 25 8
22 4 -2 10 0 13 5 4 5 -1 12 -9 14 -11 3 -10 4 2 3 10 -1 17 -8 15 -14 -1 -7
6 -12 15 -12 17 -1 17 -1 1 -11 -10 -5 -18 -15 -18 -20 0 -6 3 -8 8 -6 4 3 7
-35 8 -85 0 -56 -3 -82 -8 -68 -6 18 -28 21 -28 4 0 -3 5 -2 12 2 7 5 8 3 3
-5 -5 -9 -10 -10 -18 -2 -8 8 -8 14 1 23 14 14 16 38 2 38 -5 0 -6 -7 -3 -17
4 -10 2 -14 -4 -10 -6 4 -10 -4 -9 -21 1 -23 -3 -27 -26 -27 -15 -1 -30 -3
-33 -6 -3 -4 7 -6 22 -5 22 1 29 -4 31 -22 3 -21 1 -22 -17 -13 -13 7 -22 8
-26 1 -9 -15 -97 -11 -119 5 -17 13 -18 17 -6 28 10 10 11 9 5 -2 -6 -10 -4
-12 5 -6 9 6 11 4 5 -4 -5 -9 -1 -9 14 1 29 18 26 26 -9 23 -19 -2 -35 4 -47
17 -12 14 -13 17 -2 13 10 -4 14 3 14 24 1 16 -3 27 -7 25 -4 -3 -8 -1 -8 5 0
5 5 13 10 16 8 5 7 12 -2 23 -7 9 -8 13 -2 9 8 -5 11 11 10 53 -1 46 -5 60
-16 61 -69 5 -253 2 -257 -4 -2 -4 -10 -4 -16 0 -6 4 -53 7 -104 7 l-93 1 -1
-40 c-2 -57 1 -78 14 -94 9 -10 9 -13 1 -8 -8 4 -12 -10 -13 -46 -4 -77 -4
-77 -14 -77 -5 0 -4 -7 3 -15 11 -13 10 -14 -5 -9 -11 5 -16 4 -12 -3 3 -5 0
-10 -6 -10 -15 0 -20 34 -6 42 5 3 6 -2 3 -12 -5 -17 -5 -17 6 0 14 22 7 32
-15 24 -8 -4 -15 -18 -15 -32 0 -24 -3 -25 -59 -25 -42 0 -60 4 -64 14 -3 8
-1 17 6 20 9 3 8 5 -1 5 -7 1 -11 4 -9 9 3 4 -1 13 -9 20 -8 7 -14 9 -14 3 0
-5 -6 -11 -14 -14 -11 -4 -14 7 -15 49 0 30 -3 59 -6 64 -3 6 -2 10 3 10 5 0
8 18 6 40 -3 39 7 52 22 28 4 -6 3 -9 -2 -5 -5 3 -9 -8 -9 -23 -1 -16 3 -26 7
-24 10 6 6 -26 -6 -46 -7 -12 -7 -13 5 -2 8 7 15 17 15 22 1 6 2 15 3 21 0 5
7 7 14 3 8 -5 8 -2 -2 9 -9 12 -10 17 -2 17 7 0 9 5 5 11 -4 8 -9 7 -15 -2 -6
-10 -9 -10 -9 -2 0 7 8 17 18 22 10 6 12 11 4 11 -10 0 -10 5 -1 21 6 13 7 19
1 15 -6 -3 -13 0 -16 6 -3 7 -3 2 0 -12 5 -23 4 -24 -10 -7 -10 13 -31 19 -70
21 -31 2 -59 -1 -62 -6 -3 -4 -11 -5 -17 -1 -18 11 -306 9 -310 -2 -2 -5 -2
-24 -2 -42 1 -18 -2 -30 -7 -27 -5 3 -6 10 -3 15 4 5 1 9 -4 9 -6 0 -11 -4
-11 -10 0 -5 -5 -10 -12 -10 -9 0 -9 3 0 12 8 8 9 15 1 25 -9 10 -7 13 5 13
10 0 14 -4 11 -10 -3 -5 -2 -10 4 -10 5 0 9 8 8 19 -2 24 -43 23 -44 -1 -1
-10 3 -18 9 -18 7 0 7 -4 0 -12 -5 -7 -9 -35 -8 -63 1 -44 4 -50 23 -50 11 0
24 -3 28 -7 3 -3 -7 -5 -23 -4 -26 2 -29 -1 -31 -29 -6 -88 -6 -90 -29 -91
-16 -1 -21 3 -17 15 6 21 -10 48 -19 32 -4 -6 -2 -11 3 -11 6 0 11 -5 11 -11
0 -5 -4 -7 -10 -4 -6 3 -7 -1 -4 -9 5 -13 -2 -16 -35 -16 -26 0 -41 5 -41 13
0 9 -2 9 -8 -1 -11 -16 -39 -6 -39 13 0 8 4 15 9 15 4 0 8 5 8 10 0 6 -7 10
-15 10 -8 0 -15 5 -15 11 0 5 4 8 8 5 4 -2 8 4 8 14 0 10 -4 16 -8 14 -4 -3
-8 0 -8 6 0 6 -5 8 -12 4 -7 -4 -8 -3 -4 4 4 7 2 12 -3 12 -6 0 -11 -7 -11
-15 0 -8 7 -15 15 -15 21 0 19 -17 -4 -30 -16 -8 -19 -7 -16 8 1 9 -2 25 -7
35 -6 11 -5 17 2 17 7 0 7 7 -1 21 -7 14 -7 19 0 15 7 -4 9 5 6 28 -3 20 0 38
7 42 7 4 8 3 4 -4 -4 -7 -2 -12 5 -12 10 0 10 -3 1 -12 -7 -7 -12 -17 -12 -22
0 -6 5 -4 11 4 9 12 10 11 4 -5 -4 -11 -9 -26 -12 -32 -3 -7 0 -13 6 -13 6 0
10 3 10 8 -1 4 -1 14 1 22 1 11 4 9 10 -5 7 -15 8 -12 6 15 -2 19 1 41 6 48 7
8 7 12 -1 12 -6 0 -11 -6 -11 -12 0 -7 -5 -5 -11 5 -5 9 -8 21 -4 26 3 5 1 13
-5 16 -6 4 -10 3 -9 -2 3 -19 -2 -33 -12 -33 -6 0 -8 13 -5 30 3 24 1 30 -15
31 -10 1 -25 2 -31 3 -7 1 -21 -2 -32 -7 -10 -5 -16 -5 -13 0 4 7 -306 10
-323 3 -3 -1 -9 -1 -15 0 -26 7 -175 4 -175 -3z m1366 -28 c19 -22 19 -22 -3
-8 -13 8 -23 17 -23 21 0 12 6 9 26 -13z m1396 -53 c2 -10 -4 -21 -12 -23 -12
-4 -12 -3 -1 5 9 7 10 12 2 16 -6 4 -11 15 -11 24 0 21 17 4 22 -22z m-1866
-23 c3 -18 -13 -43 -26 -43 -4 0 -7 11 -7 25 0 15 5 25 14 25 8 0 11 5 7 13
-4 6 -3 8 1 4 5 -4 10 -15 11 -24z m-849 -30 c0 -8 -6 -9 -19 -2 -10 5 -18 11
-18 12 0 2 8 3 18 3 10 0 19 -6 19 -13z m1983 6 c-12 -8 -10 -10 10 -5 22 4
23 4 8 -8 -10 -7 -14 -17 -10 -21 4 -5 2 -5 -5 -2 -6 4 -13 1 -16 -5 -4 -10
-2 35 2 50 1 1 7 2 14 2 8 0 7 -4 -3 -11z m975 -9 c-3 -5 -1 -11 5 -15 5 -3
10 -1 10 4 0 6 4 11 8 11 4 0 8 -11 8 -24 0 -14 -3 -23 -7 -20 -4 2 -10 -3
-13 -12 -5 -12 -2 -15 11 -10 15 6 16 5 5 -5 -10 -11 -15 -10 -29 4 -15 15
-15 17 0 23 9 3 14 10 11 15 -3 5 -9 7 -13 5 -4 -3 -7 6 -7 19 0 13 4 21 8 19
5 -3 6 -9 3 -14z m-960 -50 c-3 -5 -11 -10 -16 -10 -6 0 -7 5 -4 10 3 6 11 10
16 10 6 0 7 -4 4 -10z m1515 -84 c0 -2 -7 -7 -16 -10 -8 -3 -12 -2 -9 4 6 10
25 14 25 6z m-3386 -109 c4 4 4 -1 0 -10 -3 -10 -7 -17 -8 -15 -1 2 -10 14
-21 28 l-20 25 21 -18 c11 -9 24 -14 28 -10z m3260 -118 c20 3 27 0 24 -11 -8
-24 -41 -14 -45 12 -2 17 0 21 6 12 4 -8 11 -13 15 -13z m-3224 -8 c0 -6 -4
-12 -8 -15 -5 -3 -9 1 -9 9 0 8 4 15 9 15 4 0 8 -4 8 -9z m25 -21 c3 -5 1 -10
-4 -10 -6 0 -11 5 -11 10 0 6 2 10 4 10 3 0 8 -4 11 -10z m3094 -229 c0 -10
-2 -11 -6 -3 -2 6 -8 10 -12 8 -4 -3 -8 1 -8 8 0 8 6 12 14 9 7 -3 13 -13 12
-22z"/>
<path d="M3043 7545 c0 -8 4 -12 9 -9 4 3 8 9 8 15 0 5 -4 9 -8 9 -5 0 -9 -7
-9 -15z"/>
<path d="M5596 7162 c-3 -5 1 -9 9 -9 8 0 12 4 9 9 -3 4 -7 8 -9 8 -2 0 -6 -4
-9 -8z"/>
<path d="M4925 7650 c-3 -6 1 -7 9 -4 18 7 21 14 7 14 -6 0 -13 -4 -16 -10z"/>
<path d="M4950 7640 c-9 -6 -10 -10 -3 -10 6 0 15 5 18 10 8 12 4 12 -15 0z"/>
<path d="M5158 7628 c10 -13 10 -17 0 -20 -8 -3 -6 -6 5 -11 26 -10 29 8 4 29
-15 14 -18 14 -9 2z"/>
<path d="M4445 7571 c-3 -5 0 -13 6 -17 8 -4 7 -9 -2 -16 -12 -8 -12 -9 0 -6
8 2 15 14 16 26 2 22 -9 29 -20 13z"/>
<path d="M2815 7500 c3 -5 11 -10 16 -10 6 0 7 5 4 10 -3 6 -11 10 -16 10 -6
0 -7 -4 -4 -10z"/>
<path d="M3530 7476 c0 -3 9 -10 20 -16 11 -6 20 -8 20 -6 0 3 -9 10 -20 16
-11 6 -20 8 -20 6z"/>
<path d="M2990 7421 c0 -6 4 -12 8 -15 5 -3 9 1 9 9 0 8 -4 15 -9 15 -4 0 -8
-4 -8 -9z"/>
<path d="M3616 7422 c-2 -4 -1 -14 4 -22 7 -11 9 -9 7 8 -1 24 -3 26 -11 14z"/>
<path d="M5007 7414 c3 -9 0 -14 -7 -12 -7 2 -15 -4 -17 -12 -3 -10 -2 -11 4
-4 4 6 15 10 24 9 19 -3 21 22 3 29 -8 3 -11 0 -7 -10z"/>
<path d="M5104 7415 c-4 -8 -10 -12 -15 -9 -5 3 -9 0 -9 -5 0 -17 18 -13 29 6
5 10 13 15 17 11 4 -4 1 -16 -7 -25 -12 -17 -12 -17 5 -1 10 9 15 21 12 27
-10 16 -26 14 -32 -4z"/>
<path d="M2855 7400 c-3 -6 1 -7 9 -4 18 7 21 14 7 14 -6 0 -13 -4 -16 -10z"/>
<path d="M4280 7390 c-12 -7 -10 -9 7 -7 12 0 19 5 17 9 -6 10 -6 10 -24 -2z"/>
<path d="M2416 6963 c-4 -9 -4 -14 0 -10 4 4 14 1 23 -6 14 -11 15 -10 1 8 -8
11 -15 21 -16 23 -1 2 -5 -5 -8 -15z"/>
<path d="M5445 6841 c-3 -5 -1 -12 5 -16 5 -3 10 1 10 9 0 18 -6 21 -15 7z"/>
<path d="M4830 6560 c0 -5 5 -10 11 -10 5 0 7 5 4 10 -3 6 -8 10 -11 10 -2 0
-4 -4 -4 -10z"/>
<path d="M4670 6545 c0 -7 30 -13 34 -7 3 4 -4 9 -15 9 -10 1 -19 0 -19 -2z"/>
<path d="M3070 6522 c0 -4 -36 -7 -80 -6 -52 1 -84 -3 -90 -11 -8 -9 -6 -14 6
-19 12 -5 15 -2 10 9 -3 9 -2 13 4 10 6 -3 10 -13 10 -21 0 -8 4 -13 10 -9 5
3 8 11 6 18 -1 7 -1 9 1 4 3 -4 10 -4 16 0 7 3 4 -3 -7 -15 -14 -17 -23 -19
-37 -11 -15 7 -21 6 -25 -5 -4 -11 -13 -12 -35 -6 -16 5 -31 5 -33 1 -3 -4
-15 -7 -28 -6 -13 1 -32 -5 -42 -14 -18 -15 -19 -15 -12 3 6 19 6 19 -12 3
-18 -17 -27 -51 -10 -41 5 3 6 10 3 15 -4 5 -2 9 4 9 5 0 13 -5 16 -10 9 -14
27 -1 19 13 -4 7 -3 9 1 4 5 -4 10 -18 12 -30 2 -12 0 -17 -4 -12 -7 9 -30 11
-43 5 -3 -2 -20 -4 -39 -4 -28 -2 -36 -7 -42 -28 -4 -15 -4 -30 0 -35 3 -4 -1
-2 -10 5 -9 6 -19 8 -23 4 -4 -4 -13 -7 -19 -7 -7 0 -12 -11 -12 -25 0 -19 -5
-24 -19 -22 -12 2 -16 -1 -10 -9 4 -8 3 -10 -5 -5 -16 10 -2 29 16 22 9 -4 13
-1 10 6 -2 7 -11 12 -20 12 -10 -1 -13 4 -10 15 4 9 3 13 -2 9 -4 -4 -9 -18
-10 -30 -1 -13 -3 -26 -4 -30 0 -5 -16 -8 -33 -8 -25 0 -29 -3 -18 -10 10 -6
11 -10 3 -10 -7 0 -13 -5 -13 -11 0 -5 5 -7 10 -4 6 3 10 2 10 -4 0 -5 -9 -13
-21 -16 -37 -12 -62 -46 -63 -85 -1 -35 -3 -38 -28 -34 -24 3 -28 -1 -29 -24
-1 -15 -1 -30 0 -34 1 -7 -31 -12 -51 -9 -7 1 -12 -32 -11 -81 0 -17 -12 -22
-47 -19 -10 0 -11 -1 -2 -5 15 -7 16 -25 1 -21 -8 1 -13 -19 -15 -56 -1 -33
-5 -61 -8 -64 -3 -4 -1 -12 4 -18 15 -18 -16 -28 -43 -13 -20 10 -21 10 -8 -5
7 -10 9 -17 4 -17 -6 0 -9 -20 -7 -45 2 -24 -1 -47 -6 -50 -6 -4 -7 -12 -3
-18 12 -19 10 -187 -2 -187 -7 0 -7 -3 0 -8 14 -10 14 -474 0 -484 -7 -5 -6
-8 1 -8 6 0 11 -7 11 -15 0 -8 -5 -15 -10 -15 -6 0 -6 -5 0 -12 13 -17 12 -48
-1 -48 -7 0 -8 -3 -1 -8 14 -9 14 -195 0 -204 -6 -5 -6 -8 0 -8 14 0 15 -100
1 -100 -7 0 -8 -3 -1 -8 14 -9 14 -195 0 -204 -6 -5 -6 -8 0 -8 14 0 14 -313
0 -322 -7 -5 -6 -8 1 -8 6 0 11 -7 11 -15 0 -8 -5 -15 -10 -15 -6 0 -6 -5 0
-12 14 -18 14 -60 1 -52 -7 5 -8 2 -2 -7 13 -21 14 -39 1 -39 -8 0 -9 -3 -2
-8 14 -9 14 -102 0 -102 -7 0 -7 -3 0 -8 14 -9 14 -195 0 -204 -6 -5 -7 -8 0
-8 14 0 14 -472 0 -482 -7 -5 -6 -8 1 -8 6 0 11 -7 11 -15 0 -8 -5 -15 -10
-15 -6 0 -6 -5 0 -12 14 -18 14 -60 1 -52 -7 5 -8 2 -2 -7 13 -21 14 -39 1
-39 -8 0 -9 -3 -2 -8 14 -9 14 -102 0 -102 -7 0 -7 -3 0 -8 14 -9 14 -165 1
-174 -8 -5 -8 -8 -1 -8 14 0 14 -63 0 -72 -6 -5 -4 -8 5 -8 13 0 13 -1 0 -10
-8 -5 -10 -10 -5 -10 6 0 10 -29 10 -71 0 -39 3 -73 7 -75 4 -3 5 -12 2 -22
-5 -13 -4 -14 4 -3 8 11 56 14 246 14 130 1 236 5 236 10 0 4 7 1 16 -7 18
-19 28 -21 18 -4 -5 7 -2 9 7 6 11 -4 14 6 12 48 0 29 -4 58 -8 63 -3 6 -1 11
5 11 8 0 8 6 0 20 -6 11 -7 20 -3 20 4 0 8 682 8 1515 0 833 -4 1515 -8 1515
-4 0 -3 9 3 19 7 14 6 21 -3 24 -6 3 -7 6 -2 6 6 1 10 36 9 85 0 72 3 87 23
112 19 25 22 26 16 6 -3 -12 -9 -22 -14 -22 -5 0 -9 -8 -9 -17 0 -14 2 -15 9
-4 5 7 14 10 20 7 7 -5 11 4 11 25 0 18 7 37 18 45 16 13 16 14 -3 8 -16 -6
-18 -4 -8 6 6 7 9 18 6 25 -5 15 14 15 36 1 10 -6 12 -5 7 2 -4 7 -1 12 8 12
9 0 16 5 16 11 0 5 -5 7 -11 3 -8 -5 -8 -1 0 13 6 11 7 23 4 27 -12 12 23 6
36 -6 11 -10 13 -10 7 0 -4 7 -1 12 8 12 8 0 18 4 21 10 3 6 -1 7 -12 4 -10
-3 -7 1 6 9 14 8 32 13 40 10 13 -4 13 -3 2 5 -7 5 -23 7 -35 4 -11 -3 -17 -1
-13 4 8 8 27 11 103 16 30 1 45 9 59 28 16 20 16 22 2 11 -14 -11 -17 -11 -17
0 0 11 -2 11 -9 -1 -6 -8 -7 -18 -4 -24 4 -5 1 -6 -6 -2 -7 5 -10 14 -7 21 3
8 0 16 -7 18 -7 2 72 5 175 6 115 0 189 -3 193 -9 3 -6 12 -10 18 -10 7 0 6 4
-3 10 -12 7 -10 9 8 7 12 0 22 -5 22 -9 0 -4 6 -8 14 -8 8 0 18 -4 21 -10 4
-6 -1 -7 -11 -3 -13 5 -15 3 -10 -8 4 -8 0 -5 -8 5 -9 11 -16 14 -16 7 0 -7
-5 -9 -12 -5 -7 5 -8 3 -3 -6 6 -10 4 -12 -11 -6 -10 4 -15 3 -10 -1 4 -4 20
-9 34 -9 84 -4 112 -9 108 -18 -2 -6 -9 -10 -15 -8 -7 1 -10 -2 -6 -8 5 -8 11
-7 21 1 9 8 14 8 14 1 0 -6 -8 -16 -17 -21 -10 -6 -13 -11 -6 -11 6 0 15 5 19
11 4 7 9 8 13 1 3 -5 15 -12 26 -14 11 -1 23 -7 27 -13 5 -6 8 -5 8 3 0 6 5
12 11 12 5 0 9 -8 8 -17 -3 -36 1 -68 9 -58 4 6 13 10 20 9 6 -1 17 -2 22 -3
6 0 10 -6 10 -12 0 -5 -6 -7 -12 -3 -10 6 -10 5 -1 -7 7 -9 13 -31 15 -50 2
-29 28 -77 28 -51 0 5 6 9 14 9 8 0 15 -3 14 -6 0 -3 0 -32 1 -64 1 -43 4 -56
14 -51 6 4 9 4 5 -1 -4 -4 -2 -15 5 -24 11 -14 10 -14 -5 -3 -16 13 -17 6 -17
-100 1 -73 5 -116 13 -120 8 -6 7 -8 -2 -8 -9 0 -12 -23 -11 -88 l1 -89 27 2
c14 1 36 -2 49 -6 15 -6 22 -5 22 4 0 6 7 3 15 -7 19 -26 19 -42 0 -26 -8 7
-15 8 -15 4 0 -5 9 -15 19 -21 17 -11 19 -9 17 11 -2 13 -6 28 -10 34 -4 7 -2
12 4 12 6 0 13 -7 16 -15 4 -8 10 -15 15 -15 4 0 6 6 3 14 -3 9 2 13 16 12 11
0 20 -4 20 -8 0 -5 0 -11 0 -15 0 -5 -5 -1 -11 7 -9 13 -10 12 -5 -2 3 -12 0
-18 -9 -18 -7 0 -16 -4 -19 -9 -13 -20 36 3 54 26 17 22 19 23 30 6 11 -17 11
-17 6 0 -3 9 -2 17 3 17 16 0 20 -13 10 -34 -10 -20 -10 -20 5 -2 9 11 16 25
16 30 0 6 8 2 17 -9 14 -18 15 -18 9 -2 -4 13 -2 17 6 14 7 -2 12 -13 10 -23
-2 -15 0 -14 11 5 9 14 17 19 21 13 3 -6 2 -13 -4 -17 -5 -3 -10 -12 -10 -18
0 -7 7 -3 15 7 8 10 12 23 9 27 -3 5 0 9 6 9 6 0 13 -7 16 -15 4 -8 10 -15 15
-15 4 0 6 7 3 15 -4 10 0 13 14 10 22 -4 37 19 25 37 -4 7 -1 8 6 4 7 -5 10
-14 7 -21 -3 -9 2 -13 15 -12 21 1 27 17 7 17 -8 0 -9 3 -3 8 6 4 10 28 10 55
0 35 -4 47 -15 48 -10 0 -11 2 -2 6 6 2 12 9 12 14 0 6 -6 7 -12 4 -7 -4 -4 1
7 11 20 16 20 16 -1 11 -12 -2 -28 0 -35 5 -12 7 -11 9 1 7 41 -4 45 0 45 51
0 37 -4 50 -15 51 -10 0 -11 2 -2 6 6 2 12 9 12 14 0 6 -6 7 -12 4 -7 -4 -6
-1 2 7 11 10 15 37 15 113 0 60 5 109 13 123 16 32 15 37 -5 21 -11 -9 -14
-10 -9 -2 4 7 16 18 26 23 18 10 19 8 10 -15 -9 -23 -7 -26 7 -23 11 2 18 14
19 33 1 17 3 32 4 35 1 3 2 12 1 21 -1 11 6 17 24 17 22 0 24 -3 13 -17 -12
-14 -11 -14 4 -3 11 9 16 25 14 49 -2 31 0 34 20 30 29 -5 43 3 46 28 2 11 8
20 13 20 6 0 9 -2 8 -5 -13 -37 -13 -42 0 -20 9 14 14 27 12 31 -4 5 54 12 99
11 17 -1 17 0 2 11 -19 14 -13 44 9 44 8 0 15 -4 15 -9 0 -4 8 -8 18 -8 14 0
15 2 2 10 -10 7 28 10 116 10 90 0 134 -4 143 -12 11 -11 13 -10 7 0 -6 9 4
12 38 10 25 -2 46 -7 46 -13 0 -5 5 -3 10 5 8 12 9 10 7 -7 -2 -12 -7 -26 -12
-30 -4 -5 -5 -2 -1 4 5 9 2 11 -10 6 -11 -4 -15 -3 -10 5 11 18 -11 23 -25 5
-8 -10 -9 -14 -2 -10 6 4 15 2 20 -6 4 -7 16 -13 26 -14 9 0 31 -1 48 -2 16 0
28 -5 25 -10 -3 -5 2 -12 11 -15 15 -6 15 -8 -1 -19 -17 -12 -16 -13 6 -14 52
-1 59 -3 52 -15 -5 -9 -2 -9 9 1 21 17 22 8 1 -27 l-16 -27 21 25 c11 14 21
28 21 33 0 18 18 4 18 -15 2 -47 9 -61 29 -63 15 -1 19 3 16 14 -5 13 -3 13 7
4 20 -18 5 -41 -24 -38 -14 2 -24 -1 -21 -5 3 -5 13 -6 22 -3 12 5 14 3 8 -8
-8 -12 -6 -12 8 0 15 12 17 11 18 -5 1 -11 1 -22 0 -26 0 -5 4 -8 10 -8 8 0 8
-5 -1 -15 -11 -13 -8 -14 19 -9 l31 7 1 -64 c1 -35 1 -81 1 -102 0 -25 3 -35
11 -31 8 5 8 2 0 -7 -7 -7 -13 -26 -13 -41 0 -16 6 -28 13 -28 8 0 8 -3 2 -8
-15 -10 -16 -52 -2 -52 7 0 6 -4 -3 -10 -13 -9 -13 -11 0 -20 8 -5 10 -10 4
-10 -7 0 -11 -19 -11 -45 0 -26 4 -45 11 -45 8 0 8 -2 0 -8 -14 -9 -14 -43 0
-61 8 -11 8 -13 -1 -8 -8 5 -11 -2 -11 -23 1 -16 6 -30 12 -30 8 0 8 -3 1 -8
-15 -10 -16 -52 -2 -52 7 0 6 -4 -3 -10 -13 -9 -13 -11 0 -20 8 -5 10 -10 4
-10 -15 0 -15 -90 0 -90 8 0 8 -2 0 -8 -14 -9 -14 -43 0 -61 8 -11 8 -13 -1
-8 -8 5 -11 -2 -11 -23 1 -16 6 -30 12 -30 8 0 8 -3 1 -8 -15 -10 -16 -52 -2
-52 7 0 6 -4 -3 -10 -13 -9 -13 -11 0 -20 8 -5 10 -10 4 -10 -15 0 -15 -90 0
-90 8 0 8 -2 0 -8 -14 -9 -14 -43 0 -61 8 -11 8 -13 -1 -8 -8 5 -11 -2 -11
-23 1 -16 6 -30 12 -30 8 0 8 -3 1 -8 -15 -10 -16 -52 -2 -52 7 0 6 -4 -3 -10
-13 -9 -13 -11 0 -20 8 -5 10 -10 4 -10 -15 0 -15 -90 0 -90 8 0 8 -2 0 -8
-14 -9 -14 -43 0 -61 8 -11 8 -13 -1 -8 -8 5 -11 -2 -11 -23 1 -16 6 -30 12
-30 8 0 8 -3 1 -8 -15 -10 -16 -52 -2 -52 7 0 6 -4 -3 -10 -13 -9 -13 -11 0
-20 8 -5 10 -10 4 -10 -15 0 -15 -90 0 -90 8 0 8 -2 0 -8 -14 -9 -14 -43 0
-61 8 -11 8 -13 -1 -8 -8 5 -11 -2 -11 -23 1 -16 6 -30 12 -30 8 0 8 -3 1 -8
-15 -10 -16 -52 -2 -52 7 0 6 -4 -3 -10 -13 -9 -13 -11 0 -20 8 -5 10 -10 4
-10 -15 0 -15 -90 0 -90 8 0 8 -2 0 -8 -14 -9 -14 -43 0 -61 8 -11 8 -13 -1
-8 -8 5 -11 -2 -11 -23 1 -16 6 -30 12 -30 8 0 8 -3 1 -8 -15 -10 -16 -52 -2
-52 7 0 6 -4 -3 -10 -13 -9 -13 -11 0 -20 8 -5 10 -10 4 -10 -7 0 -11 -19 -11
-45 0 -26 4 -45 11 -45 8 0 8 -2 0 -8 -14 -9 -14 -43 0 -61 8 -11 8 -13 -1 -8
-8 5 -11 -2 -11 -23 1 -16 6 -30 12 -30 8 0 8 -3 1 -8 -15 -10 -16 -52 -2 -52
7 0 6 -4 -3 -10 -13 -9 -13 -11 0 -20 8 -5 10 -10 4 -10 -7 0 -11 -19 -11 -45
0 -26 4 -45 11 -45 8 0 8 -2 0 -8 -14 -9 -14 -43 0 -61 8 -11 8 -13 -1 -7 -8
4 -13 2 -13 -6 0 -8 6 -20 13 -27 10 -11 10 -13 0 -7 -8 4 -13 2 -13 -6 0 -8
6 -20 13 -27 10 -11 10 -13 0 -7 -8 4 -13 2 -13 -6 0 -8 6 -20 13 -27 10 -11
10 -13 0 -7 -8 4 -13 2 -13 -6 0 -8 6 -20 13 -27 7 -8 7 -11 1 -8 -14 8 -14
-90 0 -112 6 -10 5 -12 -2 -7 -16 10 -15 -7 1 -23 6 -8 7 -11 1 -8 -7 4 -11
-8 -11 -33 0 -22 5 -40 11 -40 6 0 4 -5 -4 -10 -13 -9 -13 -11 0 -20 8 -5 10
-10 4 -10 -6 0 -10 -36 -11 -100 0 -55 4 -97 8 -94 5 3 6 -1 3 -9 -4 -11 35
-14 240 -14 174 0 243 3 239 11 -5 8 -2 8 8 0 8 -6 22 -11 31 -11 16 0 18 15
18 151 1 83 0 194 -1 246 -1 52 -1 102 -1 110 3 105 1 2747 -2 2835 -4 146 -4
144 -17 122 -6 -9 -14 -15 -18 -13 -4 3 -8 -1 -8 -9 0 -11 4 -12 13 -4 8 7 14
7 19 -1 3 -5 1 -11 -4 -11 -38 -6 -36 -12 -43 114 -2 55 -4 57 -30 57 -30 0
-35 9 -15 29 10 11 9 12 -2 6 -10 -6 -13 -4 -9 7 4 8 2 21 -3 29 -7 12 -9 12
-9 -1 -1 -12 -3 -11 -11 3 -6 9 -14 15 -19 12 -5 -3 -11 -1 -14 4 -7 11 13 9
32 -2 6 -5 12 -7 13 -5 7 31 5 39 -9 37 -36 -3 -44 1 -39 21 3 11 1 20 -4 20
-5 0 -8 3 -7 8 4 12 -22 52 -33 52 -6 0 -3 -7 6 -16 9 -9 13 -19 10 -22 -3 -4
-10 0 -14 7 -7 11 -10 11 -15 0 -3 -8 -5 0 -3 18 4 34 -8 45 -41 38 -13 -2
-18 3 -18 20 0 13 4 21 8 19 4 -3 8 0 8 5 0 10 -21 16 -42 12 -5 0 -8 3 -8 9
0 6 -3 9 -7 9 -29 -5 -34 4 -10 17 16 9 31 13 35 10 3 -3 0 -6 -6 -6 -16 0
-15 -17 1 -23 9 -3 13 2 11 16 -1 12 -3 26 -3 30 -1 5 -7 5 -13 0 -24 -14 -40
-12 -45 8 -3 10 -10 19 -15 19 -5 0 -6 -5 -2 -12 4 -7 3 -8 -4 -4 -7 4 -12 2
-12 -5 0 -7 -6 -4 -14 6 -18 25 -10 40 12 23 12 -10 14 -10 8 -1 -5 9 -2 11 8
7 9 -3 16 -2 16 3 0 5 -10 10 -22 11 -13 1 -38 3 -57 5 -39 3 -50 19 -29 44 9
12 9 15 1 9 -7 -4 -13 -3 -13 1 0 5 -13 8 -30 7 -16 -1 -30 3 -30 9 0 6 -3 8
-6 4 -7 -6 -64 19 -64 29 0 3 5 2 11 -2 7 -4 10 -1 7 6 -2 7 -12 14 -21 16
-10 1 -14 -2 -11 -8 5 -7 2 -8 -7 -2 -8 4 -21 9 -29 10 -71 10 -87 13 -103 19
-9 4 -16 15 -15 23 3 14 -10 17 -84 17 -49 0 -88 2 -88 5 0 3 -29 5 -65 5 -36
0 -65 -2 -65 -5 0 -3 -25 -5 -55 -5 -30 0 -55 4 -55 9 0 5 -6 4 -12 -1 -7 -4
-52 -8 -100 -8 -47 0 -84 -3 -81 -7 2 -5 -2 -8 -9 -8 -8 0 -9 -3 -3 -8 6 -4
11 -15 13 -25 3 -15 0 -17 -17 -8 -11 6 -22 7 -25 2 -3 -5 -26 -8 -50 -7 -42
2 -43 1 -35 -22 12 -31 12 -31 -11 -27 -11 2 -20 -2 -20 -8 0 -8 -3 -8 -9 1
-6 11 -11 10 -25 -3 -11 -11 -16 -12 -16 -4 0 7 -7 5 -16 -7 -8 -10 -13 -13
-9 -6 3 6 1 12 -4 12 -6 0 -11 -13 -11 -29 0 -26 -3 -29 -31 -27 -33 2 -49
-11 -28 -25 10 -6 11 -9 2 -9 -7 0 -13 -6 -13 -14 0 -9 -9 -13 -25 -11 -14 1
-33 -4 -42 -12 -10 -8 -12 -12 -5 -8 8 4 12 -2 12 -20 0 -22 -4 -25 -25 -21
-13 3 -30 8 -36 12 -8 4 -9 3 -5 -4 10 -16 -7 -15 -23 1 -11 9 -12 9 -7 0 5
-9 2 -11 -9 -6 -11 4 -15 14 -12 29 3 18 0 24 -12 24 -10 0 -23 6 -30 13 -11
10 -13 10 -7 0 4 -7 2 -13 -5 -13 -7 0 -10 11 -7 30 5 31 -2 35 -44 31 -10 -1
-18 2 -18 8 0 5 -9 8 -21 6 -17 -4 -19 -2 -9 10 15 18 -1 20 -18 3 -8 -8 -12
-8 -12 -1 0 13 28 25 41 17 5 -3 6 -10 3 -16 -4 -7 -2 -8 4 -4 25 15 12 36
-20 36 -18 0 -40 4 -48 10 -8 5 -17 5 -20 0 -3 -4 -14 -2 -25 6 -20 15 -20 15
-1 30 23 16 22 16 -56 17 -21 0 -38 3 -38 7 0 6 -41 5 -70 -1 -8 -2 -14 2 -12
9 2 10 -4 12 -20 7 l-23 -6 23 14 c12 7 19 17 15 22 -4 5 0 3 9 -4 10 -7 15
-17 12 -22 -3 -5 0 -9 5 -9 6 0 11 6 11 13 0 9 3 8 9 -2 5 -8 11 -9 15 -3 3 6
0 13 -6 15 -10 4 -9 8 2 16 11 8 11 11 2 11 -7 0 -15 -7 -18 -15 -4 -8 -10
-12 -15 -9 -5 3 -7 9 -5 13 3 4 -28 8 -67 9 -80 2 -91 2 -109 2 -7 0 -34 0
-60 1 -27 1 -50 0 -54 -3 -3 -3 -20 -2 -39 2 -21 5 -38 3 -46 -4 -9 -8 -10 -8
-4 3 6 11 4 11 -11 3 -11 -6 -27 -7 -41 -1 -13 5 -23 5 -23 1z m394 -20 c3 -5
-1 -9 -9 -9 -8 0 -12 4 -9 9 3 4 7 8 9 8 2 0 6 -4 9 -8z m1008 0 c3 8 7 6 11
-6 5 -11 3 -15 -5 -10 -7 5 -9 2 -5 -8 4 -11 1 -15 -11 -13 -9 2 -20 4 -24 4
-5 1 -5 9 1 40 1 2 7 -2 15 -8 11 -9 15 -9 18 1z m763 -102 c3 -6 -1 -7 -9 -4
-18 7 -21 14 -7 14 6 0 13 -4 16 -10z m-1005 -40 c0 -5 -4 -10 -10 -10 -5 0
-10 5 -10 10 0 6 5 10 10 10 6 0 10 -4 10 -10z m1080 0 c0 -5 -2 -10 -4 -10
-3 0 -8 5 -11 10 -3 6 -1 10 4 10 6 0 11 -4 11 -10z m-2786 -133 c7 -6 6 -7
-4 -4 -8 2 -16 12 -17 23 -2 13 -1 15 4 4 3 -8 11 -19 17 -23z m-58 -46 c0
-12 -5 -17 -15 -13 -8 3 -12 1 -8 -5 3 -5 0 -10 -8 -10 -20 0 -19 6 8 28 12
10 22 18 22 19 1 0 1 -8 1 -19z m2059 -181 c3 -5 1 -10 -4 -10 -6 0 -11 5 -11
10 0 6 2 10 4 10 3 0 8 -4 11 -10z m-966 -46 c4 3 8 -1 8 -9 0 -8 -4 -15 -9
-15 -4 0 -8 2 -8 4 0 2 -2 10 -3 18 -2 7 -2 10 0 5 3 -4 8 -5 12 -3z m1506 6
c8 7 15 7 19 1 4 -5 1 -13 -5 -17 -8 -4 -7 -9 2 -15 10 -6 7 -8 -8 -6 -12 0
-20 4 -17 8 2 4 0 10 -6 14 -5 3 -10 12 -9 18 0 8 2 8 6 -1 4 -9 8 -10 18 -2z
m-1325 -215 c0 -5 -5 -3 -10 5 -5 8 -10 20 -10 25 0 6 5 3 10 -5 5 -8 10 -19
10 -25z m-1520 -21 c0 -8 -19 -13 -24 -6 -3 5 1 9 9 9 8 0 15 -2 15 -3z m1990
-134 c8 -5 11 -10 5 -10 -5 0 -17 5 -25 10 -8 5 -10 10 -5 10 6 0 17 -5 25
-10z m8 -34 c-7 -8 -15 -12 -17 -11 -5 6 10 25 20 25 5 0 4 -6 -3 -14z m-410
-41 c-3 -3 -9 2 -12 12 -6 14 -5 15 5 6 7 -7 10 -15 7 -18z m411 5 c-6 -5 -18
-6 -26 -3 -19 8 -16 11 13 11 17 0 22 -3 13 -8z m-24 -39 c-3 -6 3 -14 12 -20
17 -10 17 -10 1 -11 -10 0 -18 2 -18 4 0 2 -3 11 -6 20 -3 9 -1 16 6 16 6 0 9
-4 5 -9z m-1510 -41 c3 -5 1 -10 -4 -10 -6 0 -11 5 -11 10 0 6 2 10 4 10 3 0
8 -4 11 -10z m1535 -14 c0 -2 -7 -6 -15 -10 -8 -3 -15 -1 -15 4 0 6 7 10 15
10 8 0 15 -2 15 -4z m-7 -31 c-3 -9 -8 -14 -10 -11 -3 3 -2 9 2 15 9 16 15 13
8 -4z m-18 -74 c-3 -6 3 -14 12 -20 17 -10 17 -10 1 -11 -10 0 -18 2 -18 4 0
2 -3 11 -6 20 -3 9 -1 16 6 16 6 0 9 -4 5 -9z m-1495 -37 c0 -8 -19 -13 -24
-6 -3 5 1 9 9 9 8 0 15 -2 15 -3z m1094 -2 c3 -5 -1 -9 -9 -9 -8 0 -12 4 -9 9
3 4 7 8 9 8 2 0 6 -4 9 -8z m426 -17 c0 -11 -29 -11 -33 -1 -4 10 1 12 14 9
10 -3 19 -7 19 -8z m-437 -60 c-3 -9 -8 -14 -10 -11 -3 3 -2 9 2 15 9 16 15
13 8 -4z m-1093 -45 c0 -5 -4 -10 -10 -10 -5 0 -10 5 -10 10 0 6 5 10 10 10 6
0 10 -4 10 -10z m-5 -69 c3 -5 2 -12 -3 -15 -5 -3 -9 1 -9 9 0 17 3 19 12 6z
m9 -49 c3 -5 -1 -9 -9 -9 -8 0 -12 4 -9 9 3 4 7 8 9 8 2 0 6 -4 9 -8z m-9 -82
c3 -5 1 -10 -4 -10 -6 0 -11 5 -11 10 0 6 2 10 4 10 3 0 8 -4 11 -10z m15
-156 c0 -8 -19 -13 -24 -6 -3 5 1 9 9 9 8 0 15 -2 15 -3z m-10 -124 c0 -5 -4
-10 -10 -10 -5 0 -10 5 -10 10 0 6 5 10 10 10 6 0 10 -4 10 -10z m-5 -69 c3
-5 2 -12 -3 -15 -5 -3 -9 1 -9 9 0 17 3 19 12 6z m9 -49 c3 -5 -1 -9 -9 -9 -8
0 -12 4 -9 9 3 4 7 8 9 8 2 0 6 -4 9 -8z m-9 -82 c3 -5 1 -10 -4 -10 -6 0 -11
5 -11 10 0 6 2 10 4 10 3 0 8 -4 11 -10z m15 -156 c0 -8 -19 -13 -24 -6 -3 5
1 9 9 9 8 0 15 -2 15 -3z m-10 -124 c0 -5 -4 -10 -10 -10 -5 0 -10 5 -10 10 0
6 5 10 10 10 6 0 10 -4 10 -10z m-5 -69 c3 -5 2 -12 -3 -15 -5 -3 -9 1 -9 9 0
17 3 19 12 6z m9 -49 c3 -5 -1 -9 -9 -9 -8 0 -12 4 -9 9 3 4 7 8 9 8 2 0 6 -4
9 -8z m-9 -82 c3 -5 1 -10 -4 -10 -6 0 -11 5 -11 10 0 6 2 10 4 10 3 0 8 -4
11 -10z m15 -156 c0 -8 -19 -13 -24 -6 -3 5 1 9 9 9 8 0 15 -2 15 -3z m-10
-124 c0 -5 -4 -10 -10 -10 -5 0 -10 5 -10 10 0 6 5 10 10 10 6 0 10 -4 10 -10z
m-5 -69 c3 -5 2 -12 -3 -15 -5 -3 -9 1 -9 9 0 17 3 19 12 6z m9 -49 c3 -5 -1
-9 -9 -9 -8 0 -12 4 -9 9 3 4 7 8 9 8 2 0 6 -4 9 -8z m-9 -82 c3 -5 1 -10 -4
-10 -6 0 -11 5 -11 10 0 6 2 10 4 10 3 0 8 -4 11 -10z m15 -156 c0 -8 -19 -13
-24 -6 -3 5 1 9 9 9 8 0 15 -2 15 -3z m-10 -124 c0 -5 -4 -10 -10 -10 -5 0
-10 5 -10 10 0 6 5 10 10 10 6 0 10 -4 10 -10z m-5 -69 c3 -5 2 -12 -3 -15 -5
-3 -9 1 -9 9 0 17 3 19 12 6z m9 -49 c3 -5 -1 -9 -9 -9 -8 0 -12 4 -9 9 3 4 7
8 9 8 2 0 6 -4 9 -8z m-9 -82 c3 -5 1 -10 -4 -10 -6 0 -11 5 -11 10 0 6 2 10
4 10 3 0 8 -4 11 -10z m5 -200 c0 -5 -4 -10 -10 -10 -5 0 -10 5 -10 10 0 6 5
10 10 10 6 0 10 -4 10 -10z m5 -160 c3 -6 -1 -7 -9 -4 -18 7 -21 14 -7 14 6 0
13 -4 16 -10z"/>
<path d="M4446 6487 c3 -10 9 -15 12 -12 3 3 0 11 -7 18 -10 9 -11 8 -5 -6z"/>
<path d="M5046 6504 c-3 -7 3 -18 14 -24 22 -12 22 -12 25 15 2 24 -30 32 -39
9z m28 -10 c3 -8 2 -12 -4 -9 -6 3 -10 10 -10 16 0 14 7 11 14 -7z"/>
<path d="M5100 6491 c0 -6 4 -13 10 -16 6 -3 7 1 4 9 -7 18 -14 21 -14 7z"/>
<path d="M2868 6473 c7 -3 16 -2 19 1 4 3 -2 6 -13 5 -11 0 -14 -3 -6 -6z"/>
<path d="M4256 6433 c-6 -14 -5 -15 5 -6 7 7 10 15 7 18 -3 3 -9 -2 -12 -12z"/>
<path d="M5230 6441 c0 -5 7 -12 16 -15 24 -9 27 -7 10 9 -17 17 -26 19 -26 6z"/>
<path d="M2596 6378 c3 -4 11 -5 19 -1 21 7 19 12 -4 10 -11 0 -18 -5 -15 -9z"/>
<path d="M5376 6367 c3 -10 9 -15 12 -12 3 3 0 11 -7 18 -10 9 -11 8 -5 -6z"/>
<path d="M4070 6326 c0 -2 7 -7 16 -10 8 -3 12 -2 9 4 -6 10 -25 14 -25 6z"/>
<path d="M3995 6250 c-3 -6 1 -7 9 -4 18 7 21 14 7 14 -6 0 -13 -4 -16 -10z"/>
<path d="M2410 6200 c0 -5 5 -10 10 -10 6 0 10 5 10 10 0 6 -4 10 -10 10 -5 0
-10 -4 -10 -10z"/>
<path d="M5547 6198 c-2 -7 -6 -17 -8 -22 -2 -5 6 -10 18 -11 18 -1 20 2 13
15 -5 10 -6 20 -3 24 3 3 2 6 -4 6 -6 0 -13 -6 -16 -12z"/>
<path d="M2373 6125 c0 -15 4 -24 11 -22 6 2 11 12 11 22 0 10 -5 20 -11 22
-7 2 -11 -7 -11 -22z"/>
<path d="M5616 6138 c3 -5 10 -6 15 -3 13 9 11 12 -6 12 -8 0 -12 -4 -9 -9z"/>
<path d="M4555 6000 c3 -5 8 -10 11 -10 2 0 4 5 4 10 0 6 -5 10 -11 10 -5 0
-7 -4 -4 -10z"/>
<path d="M4580 5979 c0 -5 5 -7 10 -4 6 3 10 8 10 11 0 2 -4 4 -10 4 -5 0 -10
-5 -10 -11z"/>
<path d="M2246 5955 c4 -8 11 -15 16 -15 6 0 5 6 -2 15 -7 8 -14 15 -16 15 -2
0 -1 -7 2 -15z"/>
<path d="M5746 5943 c-6 -14 -5 -15 5 -6 7 7 10 15 7 18 -3 3 -9 -2 -12 -12z"/>
<path d="M2930 5922 c0 -5 7 -9 15 -9 8 0 12 4 9 9 -3 4 -9 8 -15 8 -5 0 -9
-4 -9 -8z"/>
<path d="M4460 5919 c0 -5 5 -7 10 -4 6 3 10 8 10 11 0 2 -4 4 -10 4 -5 0 -10
-5 -10 -11z"/>
<path d="M5126 5863 c-6 -14 -5 -15 5 -6 7 7 10 15 7 18 -3 3 -9 -2 -12 -12z"/>
<path d="M5770 5820 c0 -5 5 -10 11 -10 5 0 7 5 4 10 -3 6 -8 10 -11 10 -2 0
-4 -4 -4 -10z"/>
<path d="M2810 5799 c0 -5 5 -7 10 -4 6 3 10 8 10 11 0 2 -4 4 -10 4 -5 0 -10
-5 -10 -11z"/>
<path d="M3655 5800 c3 -5 8 -10 11 -10 2 0 4 5 4 10 0 6 -5 10 -11 10 -5 0
-7 -4 -4 -10z"/>
<path d="M2170 5780 c0 -8 23 -30 31 -30 4 0 7 9 6 19 -1 12 -8 19 -19 18 -10
-1 -18 -4 -18 -7z"/>
<path d="M5775 5780 c3 -5 8 -10 11 -10 2 0 4 5 4 10 0 6 -5 10 -11 10 -5 0
-7 -4 -4 -10z"/>
<path d="M4251 5733 c-1 -17 16 -25 25 -12 4 7 3 9 -4 5 -5 -3 -13 0 -15 6 -4
9 -6 10 -6 1z"/>
<path d="M3696 5678 c3 -5 10 -6 15 -3 13 9 11 12 -6 12 -8 0 -12 -4 -9 -9z"/>
<path d="M3970 5141 c0 -5 7 -15 17 -22 15 -13 15 -12 4 9 -12 23 -21 28 -21
13z"/>
<path d="M4034 5142 c3 -6 3 -12 -1 -15 -5 -2 -3 -2 4 -1 6 2 13 -2 16 -9 2
-7 6 -7 10 -1 3 5 -3 16 -15 23 -11 7 -17 8 -14 3z"/>
<path d="M4116 5135 c-9 -26 -7 -32 5 -12 6 10 9 21 6 23 -2 3 -7 -2 -11 -11z"/>
<path d="M4148 5123 c6 -2 18 -2 25 0 6 3 1 5 -13 5 -14 0 -19 -2 -12 -5z"/>
<path d="M3970 5020 c0 -5 5 -10 11 -10 5 0 7 5 4 10 -3 6 -8 10 -11 10 -2 0
-4 -4 -4 -10z"/>
<path d="M4075 5020 c3 -5 8 -10 11 -10 2 0 4 5 4 10 0 6 -5 10 -11 10 -5 0
-7 -4 -4 -10z"/>
<path d="M3870 4995 c0 -11 -4 -15 -8 -10 -4 6 -17 10 -29 11 -21 1 -30 -19
-24 -58 1 -8 -26 -4 -35 5 -4 4 -13 2 -21 -4 -9 -9 -17 -8 -27 0 -10 9 -15 9
-18 1 -2 -6 -18 -12 -36 -12 -18 -1 -35 -5 -38 -9 -2 -5 7 -7 22 -6 19 1 28
-3 30 -16 1 -9 -2 -15 -7 -11 -5 3 -9 -1 -9 -8 0 -10 -2 -10 -8 -1 -5 8 -13 9
-22 3 -8 -6 -27 -10 -42 -10 -20 0 -28 -5 -29 -17 -1 -10 -2 -25 -3 -33 0 -9
-12 -14 -31 -15 -26 0 -30 -3 -27 -26 3 -29 -23 -43 -51 -28 -12 7 -14 5 -10
-11 3 -12 8 -19 10 -16 6 6 33 -19 33 -30 0 -5 -5 -3 -12 4 -14 14 -39 16 -36
3 2 -5 -6 -16 -17 -25 -19 -15 -19 -15 5 -10 14 2 20 2 14 -1 -7 -3 -10 -14
-7 -24 3 -10 -1 -22 -8 -26 -7 -5 -10 -4 -6 1 3 6 2 16 -4 24 -7 12 -9 12 -9
-4 0 -13 -5 -16 -16 -12 -12 5 -15 2 -10 -10 3 -8 6 -18 6 -20 0 -3 5 -2 12 2
7 4 8 3 4 -5 -4 -6 -12 -8 -18 -5 -7 5 -9 2 -5 -8 3 -9 0 -21 -6 -27 -8 -8 -8
-11 2 -11 7 0 9 -5 5 -11 -3 -6 -7 -28 -8 -49 0 -20 -6 -43 -12 -51 -7 -8 -14
-23 -17 -34 -4 -19 -5 -18 -6 2 0 12 4 25 9 28 6 4 8 10 5 15 -3 5 -1 11 4 15
5 3 8 15 6 27 -5 25 -15 37 -15 17 0 -12 -2 -11 -11 1 -9 13 -10 12 -5 -2 3
-11 0 -18 -7 -18 -7 0 -8 -3 -2 -8 12 -8 20 -46 8 -39 -11 7 -10 -175 1 -192
6 -10 6 -12 -2 -7 -7 4 -12 2 -12 -3 0 -6 6 -11 13 -11 7 0 8 -3 2 -8 -6 -4
-10 -41 -10 -82 1 -116 -2 -129 -33 -124 -15 3 -24 2 -20 -1 3 -4 14 -8 25 -9
12 -2 19 -13 21 -32 2 -17 -1 -24 -5 -17 -5 7 -18 11 -28 11 -22 -2 -21 2 -26
-130 -2 -37 -7 -62 -11 -55 -4 7 -8 10 -9 7 0 -3 -2 -13 -4 -23 -2 -11 1 -17
9 -14 9 4 12 -43 14 -187 3 -297 6 -385 16 -379 4 3 13 -1 18 -8 8 -11 8 -10
4 4 -4 12 -2 17 6 15 11 -4 19 -46 21 -114 1 -27 4 -30 30 -29 25 2 28 -1 25
-27 -2 -17 3 -33 12 -38 8 -5 10 -10 4 -10 -6 0 -9 -10 -7 -24 4 -17 10 -23
21 -19 11 5 13 3 7 -8 -7 -12 -6 -12 7 -1 13 10 16 9 21 -7 3 -11 0 -22 -7
-25 -7 -3 -7 -5 2 -5 7 -1 10 -5 7 -11 -3 -5 -2 -10 3 -10 5 0 8 -13 7 -29 -2
-27 0 -29 22 -20 14 5 25 9 27 9 1 0 5 -24 8 -56 2 -15 38 -38 38 -24 0 5 5
10 10 10 6 0 10 -6 9 -12 -1 -7 -1 -24 0 -37 1 -20 5 -23 30 -19 24 4 29 1 29
-19 0 -12 -5 -20 -10 -17 -5 3 -4 -3 4 -15 9 -15 20 -19 41 -16 19 4 27 1 26
-7 -4 -32 2 -72 9 -61 4 7 16 11 27 9 15 -2 20 -12 22 -47 1 -24 -3 -49 -8
-55 -6 -8 -6 -14 -1 -18 14 -9 13 -146 -2 -146 -8 0 -8 -2 0 -8 13 -8 13 -61
0 -81 -6 -10 -6 -12 2 -7 7 4 12 2 12 -3 0 -6 -6 -11 -12 -11 -9 0 -9 -3 -3
-8 13 -9 13 -42 1 -61 -6 -10 -5 -12 2 -7 7 4 12 2 12 -3 0 -6 -6 -11 -12 -11
-8 0 -9 -3 -3 -8 13 -9 20 -46 7 -38 -5 3 -9 -1 -9 -9 0 -8 4 -12 9 -9 4 3 8
0 8 -5 0 -6 -6 -11 -12 -11 -8 0 -9 -3 -3 -8 13 -9 14 -55 0 -64 -7 -5 -7 -8
1 -8 6 0 11 -7 11 -15 0 -10 -7 -14 -21 -10 -19 5 -19 4 2 -6 12 -7 22 -16 22
-21 0 -5 -6 -6 -12 -2 -10 5 -10 4 -1 -6 9 -9 9 -19 2 -33 -8 -14 -8 -18 0
-13 6 4 11 2 11 -3 0 -6 -6 -11 -12 -11 -9 0 -10 -2 -2 -8 14 -9 13 -94 -1
-104 -6 -5 -6 -8 1 -8 6 0 11 -7 11 -15 0 -11 -7 -14 -21 -10 -20 6 -20 5 1
-7 26 -15 29 -28 11 -39 -7 -5 -8 -9 -2 -9 6 0 11 -7 11 -15 0 -10 -7 -14 -21
-10 -19 5 -19 4 2 -6 12 -7 22 -16 22 -21 0 -5 -6 -6 -12 -2 -10 5 -10 4 -1
-6 9 -9 9 -19 2 -33 -8 -14 -8 -18 0 -13 6 4 11 2 11 -3 0 -6 -6 -11 -12 -11
-9 0 -10 -2 -2 -8 14 -9 13 -94 -1 -104 -6 -5 -6 -8 1 -8 6 0 11 -7 11 -15 0
-19 -11 -19 -27 0 -7 8 -17 15 -23 15 -6 0 3 -10 21 -23 25 -19 29 -26 19 -37
-9 -10 -9 -11 1 -6 6 4 12 2 12 -3 0 -6 -6 -11 -12 -11 -8 0 -9 -3 -3 -8 6 -4
12 -23 13 -41 3 -31 2 -33 -12 -22 -9 7 -13 17 -10 22 3 5 -3 6 -12 2 -11 -4
-13 -8 -6 -11 7 -2 9 -9 6 -14 -4 -6 -2 -8 4 -4 22 13 27 -24 28 -220 l0 -200
-23 0 c-24 0 -27 16 -3 24 8 3 10 0 5 -9 -5 -8 -4 -11 0 -6 9 8 15 47 7 47 -3
0 -11 -8 -18 -17 -13 -17 -14 -17 -8 0 3 9 2 17 -4 17 -5 0 -9 -8 -9 -17 0
-49 -2 -52 -35 -47 -19 2 -35 -2 -40 -9 -6 -9 -8 -9 -8 1 0 8 -10 13 -27 12
-61 -4 -104 0 -98 10 3 5 1 10 -4 10 -6 0 -11 -4 -11 -9 0 -5 -12 -8 -27 -7
-20 3 -27 9 -25 20 2 9 -1 16 -5 15 -20 -3 -34 2 -28 11 6 10 -6 14 -37 11 -9
-1 -22 7 -28 18 -8 16 -8 21 1 21 8 0 8 4 -1 15 -9 11 -16 12 -25 5 -8 -6 -18
-5 -31 4 -13 10 -23 11 -31 4 -9 -7 -13 -7 -13 1 0 6 -5 11 -11 11 -5 0 -7 -6
-3 -12 4 -7 3 -9 -2 -5 -4 4 -8 20 -9 34 0 17 -6 27 -17 29 -11 1 -15 -3 -11
-14 3 -10 -2 -7 -12 6 -14 19 -19 21 -33 10 -14 -11 -14 -9 1 8 19 23 22 44 6
44 -5 0 -7 -6 -4 -13 4 -6 0 -4 -8 6 -12 15 -16 15 -20 3 -3 -8 -1 -17 6 -19
7 -2 8 -8 4 -13 -9 -10 -28 16 -20 28 2 5 0 14 -5 21 -5 7 -8 20 -7 30 2 9 -1
17 -6 17 -10 0 -7 -29 6 -50 7 -12 6 -13 -6 -4 -8 6 -21 10 -30 9 -11 -2 -16
3 -14 14 1 9 8 15 14 14 6 -2 11 2 11 7 0 6 -7 11 -15 11 -19 2 -25 3 -53 13
-17 6 -22 13 -19 27 3 10 1 21 -3 24 -5 3 -7 15 -5 27 5 26 -11 49 -31 41 -11
-4 -12 -9 -3 -19 9 -11 8 -14 -2 -14 -11 0 -11 -2 1 -9 8 -6 19 -7 25 -4 5 4
6 2 2 -2 -10 -11 -37 -16 -38 -7 0 4 -2 22 -5 40 -2 19 0 31 5 27 5 -3 13 0
17 6 4 8 3 9 -4 5 -7 -4 -12 -2 -12 4 0 6 -5 8 -11 4 -7 -4 -10 -1 -7 7 6 18
30 18 44 0 9 -11 12 -12 19 -1 5 9 4 11 -3 6 -7 -4 -12 -2 -12 3 0 6 4 11 10
11 5 0 8 12 7 28 -2 24 2 27 29 30 22 2 34 9 37 23 3 10 1 19 -5 19 -5 0 -6 5
-3 10 3 5 19 10 34 10 27 0 28 2 30 51 1 29 4 56 7 61 4 5 -4 9 -17 7 -40 -4
-60 10 -53 37 4 15 2 24 -6 24 -7 0 -10 -7 -7 -15 4 -8 1 -17 -5 -21 -6 -4 -8
-3 -5 2 9 16 -10 39 -32 39 -11 0 -27 9 -36 20 -12 16 -14 17 -9 3 4 -11 1
-18 -6 -18 -7 0 -10 8 -7 19 5 21 1 29 -26 50 -15 12 -17 12 -11 -2 4 -12 1
-14 -15 -10 -23 6 -29 23 -8 23 8 0 7 4 -3 10 -12 8 -12 10 5 11 19 0 19 1 1
8 -11 4 -32 7 -48 6 -21 -1 -28 3 -28 17 0 11 5 16 11 13 6 -4 5 1 -2 13 -8
13 -21 19 -41 17 -27 -3 -33 6 -29 43 1 6 -2 12 -6 13 -4 0 -17 2 -28 4 -11 3
-34 5 -51 7 -21 1 -30 7 -31 20 -1 10 2 16 6 14 4 -3 8 1 8 7 0 12 -14 16 -57
19 -15 1 -40 21 -40 32 0 3 7 3 15 0 11 -5 13 -2 9 9 -3 9 -14 15 -24 14 -10
-1 -16 -5 -13 -10 3 -5 -4 -3 -15 4 -12 7 -18 17 -16 21 3 4 0 8 -5 8 -6 0
-11 -6 -11 -12 0 -9 -4 -8 -10 2 -8 12 -10 12 -10 1 0 -32 -17 8 -19 47 -1 7
-5 10 -11 7 -5 -3 -10 -1 -10 4 0 6 -5 11 -11 11 -5 0 -7 -4 -4 -10 3 -5 -1
-10 -11 -10 -12 0 -15 7 -12 30 4 29 3 30 -32 30 -35 0 -36 1 -32 30 4 29 3
30 -37 31 -56 2 -61 3 -61 12 0 4 0 10 0 13 0 4 7 1 15 -6 9 -7 18 -10 22 -6
3 3 1 6 -5 6 -13 0 -12 21 2 31 5 4 -8 6 -28 6 -33 -1 -35 -3 -20 -14 16 -12
12 -17 -8 -14 -4 0 -5 -6 -2 -14 5 -11 -1 -15 -23 -15 -39 0 -47 -9 -26 -32
13 -15 14 -18 2 -13 -12 4 -14 -3 -13 -37 2 -24 3 -49 3 -56 1 -7 5 -11 10 -7
5 3 13 1 16 -5 4 -6 3 -10 -2 -9 -4 1 -15 1 -22 0 -22 -2 1 -22 27 -24 11 0
18 -5 16 -9 -3 -4 -17 -5 -32 -2 -26 6 -27 6 -7 -11 14 -11 15 -15 4 -12 -12
4 -14 -1 -11 -23 3 -20 9 -28 22 -27 10 1 16 5 14 9 -3 5 -10 6 -15 3 -5 -3
-6 1 -3 9 5 12 10 13 26 5 14 -8 17 -14 10 -21 -8 -8 -8 -17 -1 -31 8 -15 8
-18 -1 -12 -9 5 -10 1 -5 -15 5 -15 2 -25 -6 -31 -11 -7 -11 -9 1 -9 13 0 16
-11 15 -51 -1 -28 4 -62 11 -74 10 -19 10 -23 -2 -18 -10 4 -11 -2 -5 -24 4
-15 6 -34 3 -42 -3 -10 1 -12 14 -8 18 7 17 6 -1 -9 -15 -13 -16 -15 -3 -11
11 4 18 0 21 -11 2 -9 4 -2 4 16 0 26 -4 32 -16 27 -10 -3 -9 0 4 10 19 15 20
14 25 -11 3 -16 5 -48 5 -73 0 -28 6 -52 15 -61 9 -8 11 -12 6 -8 -16 13 -22
9 -22 -12 0 -11 6 -22 14 -25 7 -2 10 0 7 5 -3 6 0 10 7 10 7 0 19 -9 26 -21
12 -19 11 -20 -10 -15 l-23 6 23 -11 c20 -11 27 -33 25 -86 -1 -7 3 -11 7 -8
4 3 11 -2 14 -11 4 -11 2 -15 -7 -11 -8 3 -14 0 -14 -7 0 -6 8 -12 18 -12 16
0 19 22 5 45 -4 5 2 8 11 7 18 -3 19 -8 22 -85 1 -39 10 -45 39 -28 13 9 20
-4 21 -35 2 -72 4 -87 11 -83 5 3 7 13 5 23 -2 13 4 18 20 20 21 1 24 -2 20
-28 -2 -20 2 -33 13 -40 10 -5 12 -10 5 -10 -7 0 -13 -8 -13 -19 0 -15 6 -18
31 -16 30 3 31 1 27 -31 -3 -24 0 -34 10 -34 8 0 10 5 6 13 -6 8 -3 8 9 -1 9
-8 21 -11 27 -7 6 4 10 -7 10 -29 0 -20 3 -35 8 -35 24 4 49 -3 50 -13 2 -37
22 -90 22 -60 0 7 12 12 28 11 15 0 22 -3 16 -5 -6 -3 -9 -16 -6 -29 3 -21 10
-25 37 -25 30 0 32 -2 29 -30 -3 -28 -1 -30 30 -30 21 0 36 -6 40 -16 3 -8 2
-13 -3 -9 -5 3 -8 -3 -7 -12 2 -12 13 -19 35 -21 27 -3 32 -7 28 -22 -3 -11 1
-25 9 -31 18 -15 32 -3 16 13 -7 7 -12 19 -12 28 0 12 2 12 9 1 7 -11 10 -11
15 0 3 8 3 3 0 -10 -4 -15 -2 -21 4 -17 6 3 14 1 18 -5 4 -8 3 -9 -4 -5 -17
10 -15 -3 3 -20 8 -9 15 -11 15 -5 0 6 12 11 26 11 14 0 23 -4 19 -10 -3 -5
-1 -10 6 -10 8 0 9 -3 0 -13 -13 -17 -5 -27 24 -27 11 0 26 -5 33 -12 7 -7 12
-8 12 -2 0 5 11 10 24 10 18 0 24 -6 24 -22 0 -15 -6 -21 -17 -19 -9 2 -18 4
-21 4 -3 1 2 6 10 12 12 8 12 10 1 7 -8 -2 -15 -11 -16 -19 -2 -10 9 -15 39
-17 56 -3 67 -6 96 -22 22 -12 24 -11 13 2 -10 12 -10 15 1 15 8 0 16 -11 19
-23 2 -13 1 -22 -2 -19 -4 2 -13 0 -20 -4 -12 -8 6 -11 64 -12 10 0 25 -5 32
-11 7 -6 13 -6 13 -1 0 5 7 10 15 10 9 0 14 -6 11 -13 -8 -20 5 -24 33 -9 24
12 27 12 27 -5 0 -10 -5 -16 -11 -12 -5 3 -5 -1 2 -9 8 -10 29 -14 62 -13 28
0 51 -2 51 -6 0 -10 33 -7 41 3 3 5 9 2 12 -7 4 -9 1 -15 -5 -13 -17 3 -20
-20 -3 -27 9 -3 13 -2 10 3 -3 5 -1 12 4 16 6 3 8 13 5 23 -4 10 -3 13 3 6 4
-6 23 -10 41 -9 18 1 35 -2 38 -7 3 -4 9 -6 14 -3 5 3 12 0 16 -6 4 -7 3 -9
-3 -6 -6 4 -16 0 -23 -8 -10 -13 -15 -12 -30 7 -15 19 -20 20 -34 9 -21 -18
-20 -28 4 -34 11 -3 20 -1 20 4 0 5 -8 9 -17 10 -12 0 -13 2 -5 6 7 3 20 -1
28 -8 17 -14 63 -19 70 -7 3 5 11 5 17 1 16 -10 277 -10 283 -1 3 5 11 5 17 1
18 -11 50 -11 66 1 11 8 13 8 8 0 -9 -16 176 -13 186 3 10 16 27 17 27 2 0 -5
-5 -7 -12 -3 -6 4 -8 3 -5 -3 3 -5 20 -8 37 -5 30 4 31 5 9 16 -25 12 -37 36
-19 36 6 0 9 -4 5 -9 -3 -5 -1 -12 5 -16 5 -3 10 0 10 8 0 8 7 17 15 21 8 3
15 1 15 -5 0 -6 7 -6 18 -1 9 5 43 8 75 8 31 -1 57 2 57 5 0 3 17 5 38 3 27
-2 32 -1 17 5 -11 5 -23 7 -26 5 -4 -2 -13 3 -20 12 -10 13 -10 17 2 24 8 5
18 5 23 0 5 -5 16 -5 27 0 12 7 20 6 24 0 4 -7 11 -8 18 -1 7 5 31 8 54 8 37
-2 40 0 31 17 -13 24 4 41 42 42 85 4 82 2 78 30 -3 24 1 27 37 31 22 2 50 4
63 5 15 0 22 7 22 19 0 11 -6 19 -12 19 -8 0 -7 4 2 10 9 5 28 7 43 6 15 -2
27 0 27 5 0 4 8 6 18 4 31 -6 44 9 21 24 -16 9 -19 9 -14 0 6 -8 4 -10 -5 -4
-9 6 -11 4 -5 -5 5 -8 4 -11 -3 -7 -15 10 -8 40 11 43 10 1 15 -1 12 -6 -3 -4
2 -10 10 -13 9 -4 12 -1 8 9 -4 11 4 14 31 14 33 0 36 2 36 30 0 27 3 30 33
30 32 0 33 2 29 30 -4 28 -2 30 30 30 32 0 35 2 30 25 -5 30 20 44 46 24 9 -7
14 -9 9 -4 -4 4 1 17 10 28 10 11 12 17 6 13 -9 -5 -13 0 -13 13 0 15 6 21 21
21 13 0 18 -4 13 -12 -4 -7 2 -4 13 7 10 11 19 29 18 40 -3 30 6 50 15 35 9
-15 49 -4 46 13 -1 7 -5 18 -9 25 -7 11 3 17 26 13 4 0 7 5 7 12 0 8 3 7 10
-3 8 -13 10 -13 14 0 3 8 8 26 10 40 3 14 5 26 7 28 1 1 2 11 3 22 0 11 6 20
11 20 12 0 14 -33 2 -41 -5 -4 -4 -10 2 -13 6 -4 11 -2 11 4 0 6 6 8 13 4 6
-4 9 -4 5 1 -4 4 -2 15 5 23 9 13 9 14 0 8 -7 -4 -13 -2 -13 3 0 6 4 11 8 11
5 0 9 14 10 32 1 30 21 55 32 40 8 -11 30 -13 30 -2 0 6 -6 10 -12 10 -9 0 -9
3 1 9 8 5 11 16 8 25 -3 8 -2 18 3 21 6 4 7 17 4 31 -4 15 -2 24 6 24 6 0 9
-4 6 -8 -2 -4 0 -14 5 -22 8 -12 9 -11 7 5 -2 12 3 20 12 20 15 0 19 16 22 87
1 26 5 35 15 31 7 -3 13 0 13 6 0 6 -7 11 -17 11 -9 0 -14 3 -10 6 10 11 48
-7 41 -19 -4 -7 -3 -8 2 -4 9 9 12 31 17 137 2 36 7 71 11 78 4 7 2 12 -5 12
-7 0 -10 3 -6 6 13 14 27 -7 17 -27 -8 -13 -7 -19 0 -19 6 0 15 10 21 23 l10
22 -5 -23 c-2 -12 0 -22 4 -22 7 0 12 101 13 268 0 32 4 42 16 41 11 0 12 -2
3 -6 -6 -2 -9 -9 -6 -14 3 -6 12 -2 20 8 14 17 15 17 10 -2 -3 -11 -2 -25 2
-32 4 -6 8 27 9 73 1 46 -2 84 -7 84 -5 0 -7 -8 -3 -17 5 -15 4 -16 -8 -5 -12
11 -11 15 3 26 11 8 17 25 16 47 -2 69 -6 79 -37 79 -25 0 -29 4 -27 25 1 18
5 24 16 20 8 -4 11 -2 6 2 -4 4 -22 8 -40 9 -27 1 -32 -3 -32 -22 0 -22 1 -22
18 -7 21 18 37 11 20 -10 -6 -7 -30 -14 -54 -16 -50 -3 -50 -3 -50 -36 0 -22
-5 -25 -35 -25 -33 0 -35 -2 -31 -28 3 -21 0 -28 -13 -29 -12 -1 -16 4 -13 15
5 15 4 15 -6 0 -6 -10 -18 -18 -25 -18 -8 0 -15 -5 -15 -11 0 -5 5 -7 12 -3 7
5 8 3 3 -6 -6 -10 -11 -9 -21 4 -10 14 -17 15 -31 7 -11 -7 -13 -11 -4 -11 8
0 11 -6 7 -16 -5 -13 -3 -14 7 -6 7 6 18 7 26 3 9 -6 10 -11 2 -15 -6 -4 -11
-3 -11 3 0 6 -10 4 -25 -3 -14 -7 -36 -12 -50 -11 -22 3 -24 1 -14 -17 9 -16
8 -19 -2 -13 -9 6 -11 3 -6 -8 5 -14 0 -17 -28 -17 -32 0 -35 -2 -35 -30 0
-24 -4 -30 -17 -28 -10 2 -23 10 -30 18 -10 13 -11 13 -10 0 1 -8 -1 -15 -5
-15 -4 0 -14 -9 -23 -20 -13 -16 -15 -16 -11 -3 3 11 1 15 -8 12 -7 -3 -13
-11 -13 -19 0 -8 4 -12 9 -9 4 3 8 0 8 -6 0 -6 4 -9 8 -6 4 2 14 0 22 -5 11
-6 5 -8 -17 -4 -18 3 -33 2 -33 -3 0 -4 -12 -8 -27 -8 -23 1 -29 -4 -33 -29
-5 -25 -10 -30 -33 -28 -18 1 -27 -3 -27 -13 0 -12 -4 -13 -22 -4 -21 10 -21
9 2 -9 30 -24 26 -29 -28 -32 -24 -2 -46 -7 -48 -11 -3 -5 -10 -6 -15 -3 -5 4
-9 1 -9 -5 0 -7 7 -9 16 -6 8 3 12 2 9 -4 -3 -6 -1 -10 4 -10 6 0 11 -8 11
-17 -1 -17 -1 -17 -11 -1 -5 10 -15 18 -21 18 -7 0 -7 -4 0 -13 9 -10 3 -13
-26 -13 -33 0 -37 -3 -42 -29 -4 -24 -11 -30 -34 -32 -30 -2 -63 -23 -37 -23
11 0 11 -3 0 -17 -8 -9 -9 -14 -4 -11 6 4 10 -8 10 -27 0 -19 -4 -31 -10 -27
-5 3 -4 -2 3 -11 8 -9 11 -21 7 -27 -3 -5 1 -13 10 -16 13 -6 14 -9 3 -15 -9
-6 -6 -8 9 -6 12 2 26 7 30 12 5 4 2 5 -6 0 -10 -6 -12 -4 -6 5 6 9 4 11 -5 5
-9 -5 -11 -4 -6 3 4 7 2 10 -6 9 -7 -2 -10 -2 -5 0 4 3 5 8 2 13 -6 10 21 7
32 -4 4 -4 8 -17 8 -29 0 -19 5 -22 33 -19 30 3 33 1 32 -20 -4 -40 -1 -45 27
-44 18 1 27 -4 29 -18 2 -14 0 -16 -9 -7 -6 6 -16 11 -21 11 -6 -1 0 -10 13
-20 13 -11 19 -20 14 -20 -16 0 -44 36 -36 46 4 5 1 4 -6 -3 -12 -10 -12 -15
0 -29 9 -12 10 -15 2 -10 -12 7 -19 -24 -14 -63 2 -7 -2 -10 -8 -7 -5 4 -13 2
-16 -4 -5 -8 -11 -7 -21 1 -12 9 -14 5 -14 -26 0 -34 -2 -37 -23 -32 -12 4
-27 3 -32 -1 -13 -9 -16 -42 -3 -42 5 0 7 -4 4 -8 -3 -5 -26 -8 -52 -7 -29 2
-41 -1 -33 -6 8 -5 10 -9 4 -9 -5 0 -3 -5 5 -10 13 -9 13 -10 0 -10 -13 0 -13
-1 0 -10 12 -8 10 -10 -10 -10 -14 0 -42 -3 -62 -6 -31 -5 -37 -11 -40 -33 -3
-25 -6 -26 -63 -26 l-60 0 -1 95 c-1 77 1 98 15 109 15 13 15 13 -1 8 -14 -5
-16 0 -13 31 2 20 4 43 4 50 1 7 6 10 11 7 6 -4 8 -11 5 -16 -3 -5 2 -6 12 -3
14 5 15 4 4 -4 -8 -6 -16 -18 -17 -27 -2 -12 1 -14 11 -5 9 7 14 7 17 0 3 -10
9 74 11 175 1 33 6 63 12 67 7 5 6 8 -1 8 -10 0 -12 22 -14 149 0 30 -3 33
-25 29 -14 -3 -25 -2 -26 1 0 3 -2 17 -3 30 l-3 23 17 -22 c10 -13 22 -20 29
-16 14 9 15 46 0 46 -5 0 -7 -5 -4 -10 3 -6 1 -10 -4 -10 -18 0 -12 19 8 29
15 9 18 17 12 43 -4 18 -6 51 -5 73 1 38 -9 55 -31 55 -5 -1 -3 -6 5 -13 18
-14 24 -37 10 -37 -5 0 -10 6 -10 14 0 8 -5 16 -11 18 -6 2 -12 25 -13 51 0
26 -4 47 -8 47 -4 0 -4 7 -1 17 5 12 3 14 -7 8 -9 -6 -11 -4 -5 6 5 7 9 27 10
44 2 26 -2 31 -21 31 -17 0 -20 -3 -13 -12 5 -7 6 -14 2 -16 -4 -3 -3 -3 4 -2
22 5 23 -12 2 -34 -11 -12 -23 -22 -26 -22 -3 0 2 9 11 19 12 13 14 20 5 23
-11 4 -20 100 -19 196 0 19 -3 20 -14 10 -9 -8 -11 -19 -5 -29 5 -10 4 -16 -5
-16 -16 0 -13 42 6 65 12 16 11 16 -7 2 -11 -8 -23 -19 -26 -24 -4 -5 -7 7 -7
25 -3 135 -7 171 -21 182 -12 10 -13 9 -6 -2 6 -11 4 -13 -8 -8 -11 4 -17 1
-17 -9 0 -12 4 -13 23 -4 21 11 21 11 3 -4 -25 -20 -34 -11 -38 39 -3 36 -6
40 -30 39 -24 -1 -26 2 -23 32 2 23 -1 34 -10 34 -20 0 -29 20 -16 33 9 9 11
8 6 -5 -4 -10 -3 -18 3 -18 6 0 9 8 7 18 -2 9 -4 19 -4 22 -1 3 -11 7 -23 7
-16 2 -19 0 -10 -6 11 -7 11 -9 0 -14 -15 -5 -18 3 -19 56 -1 15 -6 27 -11 27
-6 0 -4 8 3 17 8 10 9 14 2 10 -6 -4 -14 -3 -18 3 -3 5 -1 10 4 10 6 0 11 4
11 8 0 5 -7 9 -15 9 -8 0 -12 -4 -9 -9 3 -4 0 -8 -7 -8 -7 0 -5 -6 6 -14 18
-13 18 -14 -1 -24 -17 -9 -19 -6 -21 26 0 21 -3 48 -6 62 -2 14 0 31 5 38 6 7
6 12 1 12 -7 0 -8 90 -2 155 0 6 -2 20 -5 32 -2 13 0 25 5 28 5 4 6 12 2 18
-12 19 -11 57 1 57 7 0 7 3 1 8 -14 10 -14 145 -1 154 7 5 7 8 -2 8 -9 0 -10
5 -2 19 7 13 7 22 0 26 -7 4 -7 12 0 25 6 10 6 21 2 24 -5 3 -8 47 -7 98 2 59
-2 96 -9 100 -7 5 -4 8 7 8 12 0 16 4 10 13 -4 6 -8 35 -8 62 0 52 17 85 45
85 13 0 13 -2 0 -11 -10 -7 -11 -9 -2 -7 21 6 14 23 -10 23 -35 1 -31 21 4 24
18 1 44 4 58 5 14 2 26 9 26 17 1 8 2 20 3 28 1 9 9 12 25 9 23 -5 42 13 38
34 -2 11 37 30 47 23 5 -3 11 0 13 6 2 6 15 12 29 12 19 0 25 5 27 24 3 36 10
44 36 39 20 -4 23 -1 20 24 -2 16 0 31 5 34 5 3 6 17 3 31 -3 16 0 25 8 25 10
0 10 3 0 15 -7 8 -9 15 -5 15 4 0 14 -8 21 -17 10 -15 15 -16 26 -5 10 10 10
16 0 32 -9 15 -9 19 -1 18 8 -2 12 18 12 65 0 51 3 67 14 67 8 0 11 -5 7 -12
-4 -7 -3 -8 5 -4 9 6 9 11 0 22 -6 7 -15 12 -19 9 -9 -5 -7 42 3 51 4 4 2 13
-4 20 -7 8 -7 14 1 19 5 3 10 3 10 -1 0 -4 7 1 16 12 15 18 15 18 5 -2 -6 -12
-7 -25 -3 -29 4 -5 1 -5 -7 0 -10 5 -12 4 -7 -4 4 -6 12 -9 17 -6 5 4 9 1 9
-4 0 -6 -5 -11 -11 -11 -5 0 -7 -5 -3 -12 5 -7 3 -8 -6 -3 -8 5 -5 -5 6 -23
12 -21 21 -28 25 -20 9 15 1 30 -12 23 -5 -4 -9 -1 -9 4 0 6 5 11 12 11 6 0 8
3 5 6 -3 4 -2 15 3 25 6 10 6 20 1 23 -10 7 -8 86 3 107 4 8 1 6 -6 -3 -13
-15 -15 -15 -24 0 -9 13 -12 13 -19 2 -5 -9 -4 -11 3 -6 7 4 12 3 12 -3 0 -5
-6 -12 -12 -14 -10 -4 -10 -6 -1 -6 7 -1 10 -8 7 -18 -5 -14 -4 -15 4 -4 6 8
12 9 16 3 5 -8 -19 -25 -33 -23 -3 1 -5 40 -5 88 -1 49 -5 94 -9 101 -5 7 -4
12 2 12 7 0 8 9 3 23 -5 12 -7 32 -6 45 1 18 -3 22 -20 20 -15 -2 -20 -9 -18
-25 2 -12 -1 -23 -5 -26 -4 -3 -8 23 -8 58 1 35 -3 61 -7 58 -5 -2 -7 7 -4 21
3 14 0 29 -6 32 -15 9 -29 -18 -17 -32 11 -13 -7 -31 -18 -20 -7 7 -13 47 -13
89 0 20 -5 27 -18 27 -10 0 -19 -7 -19 -15 0 -17 13 -20 20 -5 3 6 4 5 3 -2
-4 -17 -31 -17 -31 0 0 8 -13 24 -29 37 -20 16 -25 25 -16 30 8 5 11 4 7 -2
-4 -6 -1 -13 6 -16 7 -3 13 3 14 13 1 14 -5 17 -23 15 -13 -1 -27 1 -30 6 -2
4 -12 6 -22 3 -16 -5 -16 -5 1 6 9 6 17 16 17 23 0 8 -3 8 -8 2 -10 -14 -55
-39 -47 -26 3 6 1 11 -5 11 -6 0 -9 4 -5 10 3 5 12 7 19 4 7 -3 19 2 26 11 8
10 9 15 1 15 -6 0 -11 -4 -11 -10 0 -5 -5 -10 -11 -10 -5 0 -7 5 -3 12 4 7 3
8 -4 4 -7 -4 -12 -3 -12 2 0 5 -16 7 -36 5 -23 -2 -33 0 -29 7 8 13 -11 13
-37 -1 -12 -7 -18 -7 -14 -1 3 6 3 12 -1 15 -5 2 -2 2 5 0 7 -1 10 2 7 7 -4 7
3 9 18 6 16 -3 24 1 24 10 0 10 -4 11 -14 3 -7 -7 -13 -7 -13 -2 0 5 -6 10
-12 10 -7 0 -32 3 -55 6 -30 4 -43 2 -43 -6 0 -9 -2 -9 -8 -1 -4 7 -26 11 -49
10 -24 -1 -43 2 -43 7 0 5 -7 4 -15 -3 -11 -9 -15 -9 -15 -1 0 7 -5 9 -12 5
-18 -11 -132 -11 -140 1 -4 5 -8 1 -8 -10z m570 -170 c14 -19 14 -19 -2 -6
-10 7 -18 18 -18 24 0 6 1 8 3 6 1 -2 9 -13 17 -24z m147 -100 c0 -8 -4 -12
-9 -9 -5 3 -6 10 -3 15 9 13 12 11 12 -6z m58 -115 c3 -5 1 -10 -4 -10 -6 0
-11 5 -11 10 0 6 2 10 4 10 3 0 8 -4 11 -10z m-742 -57 c-6 -16 -4 -16 15 1
19 16 24 17 39 5 11 -9 14 -10 9 -1 -4 6 -2 12 3 12 6 0 11 -6 11 -12 0 -10 2
-10 8 -1 9 14 123 13 114 -2 -3 -5 2 -4 11 4 14 11 17 11 17 0 0 -10 3 -10 12
-1 7 7 17 12 23 12 5 0 3 -5 -5 -10 -10 -6 -11 -10 -2 -10 6 0 12 -11 12 -24
0 -14 4 -27 9 -31 6 -3 8 -15 6 -26 -4 -20 -3 -20 20 -5 17 11 26 13 31 4 4
-7 3 -8 -4 -4 -7 4 -12 2 -12 -3 0 -6 4 -11 9 -11 5 0 8 -13 6 -30 -4 -28 3
-35 28 -31 5 1 6 -3 2 -9 -3 -6 -11 -8 -16 -5 -9 6 -11 -4 -12 -81 0 -41 -8
-47 -34 -31 -7 5 -13 4 -13 -1 0 -5 -7 -9 -15 -9 -8 0 -15 3 -15 7 0 4 -11 5
-25 2 -18 -3 -25 0 -25 12 0 9 -5 16 -11 16 -5 0 -8 -4 -5 -8 2 -4 -6 -8 -18
-8 -27 0 -29 28 -3 32 11 1 14 -2 10 -9 -5 -8 -2 -8 9 0 8 7 18 10 22 6 4 -4
4 1 0 11 -4 10 -10 14 -13 9 -10 -13 -31 -14 -31 -1 0 6 -3 8 -7 5 -3 -4 -17
0 -30 8 -13 9 -23 13 -23 9 0 -4 -8 0 -17 7 -16 13 -17 12 -4 -3 7 -10 9 -18
3 -18 -22 0 -21 31 1 41 20 8 19 9 -6 4 -21 -4 -27 -2 -21 6 5 8 3 9 -7 3 -8
-5 -20 -9 -28 -9 -17 0 -28 -25 -12 -25 6 0 11 5 11 10 0 6 10 2 22 -10 12
-11 18 -23 15 -27 -4 -3 -7 -2 -7 4 0 5 -23 9 -50 8 -30 -1 -47 2 -41 8 12 12
2 44 -16 51 -7 3 -12 2 -9 -2 2 -4 -4 -8 -15 -8 -15 0 -19 7 -19 33 0 18 5 33
11 33 5 0 8 -4 5 -9 -4 -5 5 -4 19 2 24 11 30 33 27 87 0 12 2 11 12 -2 18
-25 46 -23 46 3 0 17 -3 19 -14 10 -16 -13 -32 2 -21 19 10 16 15 11 8 -7z
m-54 -61 c-7 -3 -20 -12 -27 -21 -10 -13 -10 -11 -1 11 8 18 16 24 27 20 13
-5 14 -6 1 -10z m376 8 c17 -7 17 -9 3 -9 -10 -1 -18 -5 -18 -11 0 -19 -16
-10 -17 10 -2 22 2 23 32 10z m-869 -25 c-1 -8 -5 -17 -8 -21 -5 -4 -4 16 1
34 3 9 9 -1 7 -13z m504 -9 c0 -2 -7 -7 -16 -10 -8 -3 -12 -2 -9 4 6 10 25 14
25 6z m-484 -61 c-1 -8 -5 -17 -8 -21 -5 -4 -4 16 1 34 3 9 9 -1 7 -13z m-6
-45 c0 -5 -2 -10 -4 -10 -3 0 -8 5 -11 10 -3 6 -1 10 4 10 6 0 11 -4 11 -10z
m2 -27 c-6 -2 -10 -8 -8 -12 3 -4 -4 -8 -15 -8 -10 -1 -19 3 -19 8 0 6 4 8 9
4 5 -3 12 -1 16 5 3 5 12 10 18 9 9 0 8 -2 -1 -6z m342 -65 c-5 -8 0 -9 14 -6
12 4 22 3 22 -2 0 -4 13 -6 28 -5 23 2 28 -2 27 -19 -1 -14 -10 -22 -24 -24
-16 -3 -21 0 -16 8 4 6 13 9 21 6 8 -3 11 0 8 9 -9 24 -39 10 -38 -18 0 -17
-4 -23 -10 -19 -6 5 -25 8 -43 7 -26 -1 -30 1 -21 12 6 7 8 13 4 13 -4 0 1 11
10 25 16 24 32 37 18 13z m-344 -2 c0 -2 -7 -7 -16 -10 -8 -3 -12 -2 -9 4 6
10 25 14 25 6z m295 -18 c4 0 12 6 16 14 6 9 9 9 9 1 0 -6 -5 -15 -10 -18 -6
-4 -7 -11 -4 -17 4 -7 2 -8 -4 -4 -7 4 -12 2 -12 -3 0 -6 -8 -11 -17 -11 -15
0 -16 2 -3 10 13 9 13 10 0 10 -13 0 -13 1 0 10 11 7 11 10 2 10 -7 0 -10 5
-6 11 5 8 9 8 14 -1 4 -6 11 -12 15 -12z m-290 -8 c-3 -5 -12 -10 -18 -10 -7
0 -6 4 3 10 19 12 23 12 15 0z m772 -7 c0 -8 -4 -10 -12 -3 -7 5 -16 6 -20 2
-5 -4 -5 -2 -2 4 9 15 34 13 34 -3z m60 1 c-3 -3 -12 -4 -19 -1 -8 3 -5 6 6 6
11 1 17 -2 13 -5z m27 -12 c3 -5 -1 -9 -9 -9 -8 0 -12 4 -9 9 3 4 7 8 9 8 2 0
6 -4 9 -8z m-857 -8 c-3 -3 -12 -4 -19 -1 -8 3 -5 6 6 6 11 1 17 -2 13 -5z
m-7 -73 c14 -27 13 -34 -4 -19 -8 7 -12 16 -10 20 2 3 -2 9 -8 11 -10 4 -10 6
-1 6 7 1 17 -8 23 -18z m164 -9 c2 -4 1 -14 -3 -21 -6 -9 -11 -10 -15 -2 -4 6
-1 11 6 11 9 0 9 3 -2 10 -9 6 -10 10 -3 10 6 0 14 -4 17 -8z m93 -6 c-3 -7 0
-19 6 -25 8 -8 8 -11 0 -11 -6 0 -9 -14 -8 -30 1 -17 -1 -33 -6 -36 -5 -3 -9
2 -9 10 0 9 -4 16 -10 16 -5 0 -9 -5 -7 -12 1 -6 -14 -12 -40 -13 l-41 -3 26
24 c20 17 22 22 10 20 -10 -1 -21 -6 -25 -11 -4 -4 -2 -5 6 0 9 5 12 4 7 -3
-12 -20 -23 -13 -23 13 0 28 7 31 25 13 10 -10 12 -7 10 12 -2 19 1 24 14 22
9 -1 20 3 24 9 4 7 3 9 -2 6 -6 -3 -16 -2 -24 4 -11 6 -2 9 29 9 33 0 42 -3
38 -14z m-254 -33 c-7 -2 -19 -2 -25 0 -7 3 -2 5 12 5 14 0 19 -2 13 -5z
m1265 -30 c7 -7 9 -13 4 -13 -4 0 -16 6 -26 13 -14 10 -15 14 -4 14 7 0 19 -6
26 -14z m-1080 -111 c4 -1 8 -13 8 -27 0 -14 -5 -24 -10 -21 -6 2 -10 8 -9 13
1 5 -5 10 -13 10 -10 0 -11 -4 -4 -11 12 -12 13 -27 3 -25 -23 4 -30 -3 -25
-26 4 -23 1 -25 -29 -26 -19 -1 -38 -1 -43 0 -5 1 -6 -7 -3 -19 3 -11 1 -18
-4 -14 -5 3 -9 1 -9 -5 0 -5 8 -11 18 -14 9 -2 -1 -4 -23 -4 -22 0 -33 2 -23
4 9 2 19 11 22 20 8 21 -9 40 -19 22 -6 -8 -4 -10 5 -4 9 5 11 4 6 -3 -14 -23
-23 -11 -22 27 1 47 3 50 42 53 26 2 30 6 28 28 -2 25 0 26 47 25 27 -1 53 -3
57 -3z m1026 -25 c-8 -22 -41 -15 -39 8 3 27 3 27 25 15 10 -6 17 -16 14 -23z
m-1294 -7 c0 -5 -2 -10 -4 -10 -3 0 -8 5 -11 10 -3 6 -1 10 4 10 6 0 11 -4 11
-10z m1237 -46 c-9 -9 -28 6 -21 18 4 6 10 6 17 -1 6 -6 8 -13 4 -17z m-23
-24 c-6 -5 -24 21 -24 34 0 6 6 1 14 -10 8 -10 12 -21 10 -24z m-1049 -130
c-4 -6 3 -9 17 -6 13 2 31 0 40 -5 10 -6 19 -5 23 1 8 13 25 3 25 -13 0 -7 -4
-6 -10 3 -5 8 -10 13 -11 10 0 -3 -2 -13 -4 -23 -2 -12 1 -17 10 -13 9 3 12 0
8 -10 -3 -10 -9 -11 -17 -5 -16 13 -34 0 -30 -23 4 -28 -7 -47 -25 -44 -19 3
-41 -9 -41 -23 0 -6 4 -8 9 -5 5 4 7 -3 4 -14 -4 -15 -14 -20 -39 -20 -36 0
-51 14 -35 34 8 10 6 12 -10 11 -12 -1 -26 -10 -31 -20 -6 -10 -6 -15 -1 -12
5 3 15 2 23 -4 13 -7 12 -9 -2 -9 -10 0 -18 -4 -18 -8 0 -4 9 -8 19 -8 11 0
17 5 14 10 -3 5 -1 6 6 2 9 -6 9 -11 0 -22 -14 -17 2 -19 19 -2 7 7 12 8 12 3
0 -6 5 -3 11 5 9 13 10 13 6 0 -2 -8 -9 -15 -16 -15 -6 0 -15 -4 -19 -10 -9
-13 -35 -18 -27 -5 3 5 1 10 -4 10 -6 0 -11 -4 -11 -8 0 -5 -6 -9 -12 -9 -9 0
-13 17 -13 53 0 29 3 50 8 47 4 -2 7 1 7 6 0 6 9 11 21 11 15 0 19 5 15 16 -3
8 -2 12 4 9 6 -4 7 7 4 27 -3 18 -2 29 3 23 4 -5 19 -10 32 -10 27 0 38 30 14
39 -11 4 -13 2 -9 -9 3 -8 1 -15 -5 -15 -6 0 -9 7 -7 16 2 8 7 14 11 12 5 -2
13 5 18 15 6 9 12 17 15 17 3 0 2 -5 -1 -10z m214 -74 c8 -5 16 -4 20 2 4 6
15 9 26 7 11 -2 23 -4 26 -4 10 -2 8 -241 -2 -241 -6 0 -6 -6 0 -18 5 -10 7
-22 3 -28 -11 -14 -32 -15 -32 -1 0 9 -2 9 -9 -1 -5 -8 -9 17 -10 64 -1 43 -7
85 -14 93 -9 12 -9 13 1 7 7 -4 12 -1 12 9 0 10 -5 13 -12 9 -9 -5 -9 -2 1 9
8 10 9 17 3 17 -6 0 -17 -9 -25 -21 -8 -11 -17 -17 -20 -12 -3 5 8 18 24 28
28 20 39 45 18 45 -5 0 -7 -4 -4 -10 7 -11 -8 -14 -19 -3 -3 4 4 13 16 20 l23
13 -25 -4 c-19 -2 -25 -9 -25 -29 0 -36 -10 -41 -12 -6 -1 15 2 31 8 35 7 4 6
10 -1 19 -13 15 5 16 29 1z m-111 -190 c10 -6 11 -11 3 -19 -7 -7 -7 -14 0
-24 8 -9 8 -13 0 -13 -10 0 -15 14 -12 33 1 5 -4 5 -10 1 -8 -5 -9 -3 -4 6 5
9 4 11 -4 6 -8 -5 -7 -15 6 -36 9 -16 20 -27 24 -24 4 2 6 -4 5 -13 -2 -10
-11 -19 -22 -21 -16 -3 -17 -1 -4 7 8 6 11 11 5 11 -21 -1 -41 -26 -39 -51 2
-23 -2 -28 -26 -31 -32 -5 -51 7 -44 27 7 17 -16 31 -26 16 -4 -7 -6 -23 -4
-37 1 -13 -2 -24 -8 -24 -6 0 -8 9 -5 20 3 11 1 20 -3 20 -16 0 -3 33 14 36
36 5 44 13 42 38 -3 24 0 26 34 26 33 0 37 3 33 20 -3 12 0 20 6 20 7 0 10 4
7 9 -7 11 13 9 32 -3z m-128 -136 c0 -5 -5 -10 -11 -10 -5 0 -7 5 -4 10 3 6 8
10 11 10 2 0 4 -4 4 -10z m5 -41 c-4 -5 -1 -9 4 -9 6 0 3 -8 -6 -18 -10 -10
-20 -14 -22 -9 -2 5 -7 3 -12 -4 -7 -11 -9 -11 -9 2 0 9 7 19 15 23 8 3 15 9
14 13 -3 17 1 24 11 18 6 -4 8 -11 5 -16z m-132 -4 c4 -8 1 -17 -5 -21 -7 -4
-8 -3 -4 4 4 8 0 12 -11 12 -15 0 -16 2 -3 10 19 12 17 13 23 -5z m182 -5 c3
-6 -1 -7 -9 -4 -18 7 -21 14 -7 14 6 0 13 -4 16 -10z m-170 -40 c-2 -29 -10
-33 -26 -13 -8 9 -9 14 -3 10 7 -4 14 0 18 8 8 21 13 19 11 -5z m135 16 c0 -3
-4 -8 -10 -11 -5 -3 -10 -1 -10 4 0 6 5 11 10 11 6 0 10 -2 10 -4z m164 -40
c-1 -12 -7 -19 -15 -17 -8 2 -19 4 -25 4 -6 0 -11 6 -11 13 0 10 5 10 20 2 16
-8 19 -7 14 4 -3 8 0 15 7 15 7 0 12 -10 10 -21z m12 -71 c0 -28 -4 -33 -23
-31 -12 2 -29 8 -37 16 -9 7 -16 10 -16 6 0 -3 0 -8 0 -11 0 -3 3 -5 6 -4 4 0
10 -4 14 -11 9 -15 0 -61 -10 -55 -5 3 -11 1 -15 -4 -3 -6 -13 -8 -23 -5 -15
5 -15 4 -2 -6 13 -10 13 -11 0 -7 -16 4 -18 22 -9 80 4 24 2 37 -5 38 -7 0 -6
3 2 6 6 2 10 8 7 12 -6 10 36 8 52 -2 9 -5 11 -3 7 6 -3 10 2 13 23 10 25 -4
29 -9 29 -38z m-1 -64 c-3 -3 -10 1 -15 9 -7 10 -10 11 -10 3 0 -7 -5 -13 -11
-13 -8 0 -8 5 1 15 10 12 16 13 27 4 7 -7 11 -14 8 -18z m-245 15 c0 -2 -8
-10 -17 -17 -16 -13 -17 -12 -4 4 13 16 21 21 21 13z m240 -31 c0 -7 -30 -13
-34 -7 -3 4 4 9 15 9 10 1 19 0 19 -2z m-57 -52 c-6 -15 -53 -18 -53 -2 0 6 8
8 19 4 11 -3 22 -1 26 4 4 7 -1 8 -12 4 -16 -6 -16 -5 -4 11 11 12 16 14 22 5
4 -7 5 -18 2 -26z m-130 -48 c-3 -9 -8 -14 -10 -11 -3 3 -2 9 2 15 9 16 15 13
8 -4z m309 -34 c0 -4 2 -31 3 -61 2 -46 -1 -58 -21 -76 -12 -12 -20 -25 -17
-28 4 -3 1 -6 -5 -6 -17 0 -15 20 3 26 8 4 15 10 15 15 0 4 -7 6 -15 3 -11 -5
-15 1 -15 21 0 14 -4 24 -9 21 -10 -6 -25 24 -16 32 3 3 5 0 5 -6 0 -7 4 -12
8 -12 13 0 11 34 -2 42 -8 5 -7 8 2 8 6 0 12 6 12 13 0 12 48 19 52 8z m-62
-5 c0 -2 -7 -7 -16 -10 -8 -3 -12 -2 -9 4 6 10 25 14 25 6z m-29 -44 c-5 -10
-6 -24 -1 -32 10 -17 1 -42 -12 -34 -6 4 -5 10 3 15 10 6 10 9 2 9 -12 0 -10
30 2 50 11 18 16 11 6 -8z m-153 -21 c10 -6 10 -10 -3 -21 -18 -15 -42 0 -31
19 8 13 16 14 34 2z m62 -71 c6 -11 8 -20 6 -20 -3 0 -10 9 -16 20 -6 11 -8
20 -6 20 3 0 10 -9 16 -20z m-22 -21 c-3 -8 -7 -3 -11 10 -4 17 -3 21 5 13 5
-5 8 -16 6 -23z m63 -46 c13 -16 12 -17 -3 -4 -17 13 -22 21 -14 21 2 0 10 -8
17 -17z m866 -386 c0 -15 -32 -16 -44 -2 -5 4 -3 6 2 2 6 -3 17 -2 25 4 8 5
15 9 16 9 0 0 1 -6 1 -13z m-142 -165 c-13 -3 -14 -7 -4 -18 6 -8 17 -14 23
-14 7 0 13 -13 14 -30 2 -26 -1 -30 -23 -30 -14 0 -28 -1 -32 -2 -3 -2 -7 10
-8 26 0 15 5 30 12 33 7 3 10 10 6 16 -4 7 -8 19 -8 28 -1 14 2 15 17 5 16 -9
16 -11 3 -14z m1425 -62 c0 -5 -5 -10 -11 -10 -5 0 -7 5 -4 10 3 6 8 10 11 10
2 0 4 -4 4 -10z m116 -2 c5 -8 2 -9 -9 -5 -10 3 -17 2 -17 -2 0 -5 5 -11 12
-13 8 -3 7 -6 -4 -10 -11 -5 -15 -1 -13 15 3 27 3 27 14 27 6 0 13 -5 17 -12z
m-3719 -20 c-3 -8 -6 -5 -6 6 -1 11 2 17 5 13 3 -3 4 -12 1 -19z m2209 -44 c1
-12 -5 -21 -12 -21 -8 0 -14 5 -14 10 0 5 -8 3 -17 -4 -10 -7 -15 -10 -11 -5
11 13 -20 39 -38 32 -8 -3 -13 -2 -9 3 3 5 26 8 53 7 39 -2 47 -5 48 -22z
m1490 -7 c1 -9 -2 -17 -8 -17 -6 0 -8 6 -5 14 3 8 2 17 -4 20 -5 2 -4 3 2 2 7
-1 13 -10 15 -19z m-1581 -7 c3 -6 -1 -7 -9 -4 -18 7 -21 14 -7 14 6 0 13 -4
16 -10z m-2117 -25 c-3 -3 -9 2 -12 12 -6 14 -5 15 5 6 7 -7 10 -15 7 -18z
m3708 -57 c-8 -6 -8 -8 1 -8 9 0 10 -7 4 -39 -1 -2 -7 2 -14 8 -8 6 -16 9 -18
6 -3 -2 -5 6 -5 19 0 16 5 22 13 19 9 -4 11 0 6 13 -6 16 -5 17 9 4 11 -11 12
-17 4 -22z m-1440 -17 c-12 -13 -14 -21 -6 -26 7 -4 10 -33 8 -76 -2 -44 -6
-65 -12 -59 -16 16 -29 11 -22 -7 5 -15 4 -15 -9 1 -10 13 -15 15 -15 6 0 -7
-2 -11 -5 -9 -2 3 -1 20 4 37 5 18 6 32 3 32 -11 0 -2 79 9 86 5 3 8 1 7 -4
-2 -6 0 -10 5 -11 4 -1 6 1 5 3 -3 5 33 46 40 46 3 0 -3 -9 -12 -19z m-2251
-11 c3 -6 -1 -7 -9 -4 -18 7 -21 14 -7 14 6 0 13 -4 16 -10z m530 -115 c0 -12
-9 -19 -25 -22 -17 -2 -21 0 -12 6 8 4 14 12 14 16 0 4 -6 12 -14 16 -9 6 -5
8 12 6 16 -3 25 -10 25 -22z m1635 6 c0 -6 -4 -12 -8 -15 -5 -3 -9 1 -9 9 0 8
4 15 9 15 4 0 8 -4 8 -9z m934 -67 c3 -8 2 -12 -4 -9 -6 3 -10 10 -10 16 0 14
7 11 14 -7z m-744 -29 c12 0 15 -14 15 -63 0 -35 -3 -66 -7 -68 -5 -3 -8 -1
-8 3 0 5 -8 9 -18 9 -19 0 -21 -9 -25 -103 -1 -17 -4 -20 -14 -11 -9 7 -13 7
-13 -2 0 -6 -6 -10 -12 -7 -7 2 -13 9 -13 14 0 6 -2 14 -5 16 -3 3 -4 39 -2
80 3 73 4 75 27 71 28 -5 51 26 33 44 -13 13 -1 35 15 25 7 -4 19 -8 27 -8z
m-75 -35 c3 -5 1 -10 -4 -10 -6 0 -11 5 -11 10 0 6 2 10 4 10 3 0 8 -4 11 -10z
m640 -48 c-3 -3 -11 0 -18 7 -9 10 -8 11 6 5 10 -3 15 -9 12 -12z m-442 -67
c-7 -21 -12 -19 -10 4 0 11 5 18 9 15 4 -3 5 -11 1 -19z m-13 -29 c0 -3 -4 -8
-10 -11 -5 -3 -10 -1 -10 4 0 6 5 11 10 11 6 0 10 -2 10 -4z m-346 -73 c10 4
13 -6 13 -42 0 -47 0 -48 -31 -48 -29 0 -32 3 -28 29 2 15 9 28 16 29 6 0 2 4
-9 9 -11 5 -15 9 -8 9 8 1 10 8 6 19 -6 15 -5 15 10 3 9 -7 23 -11 31 -8z
m-2013 -10 c13 -16 12 -17 -3 -4 -10 7 -18 15 -18 17 0 8 8 3 21 -13z m3471
10 c-6 -3 -9 -10 -5 -16 4 -7 -1 -6 -10 2 -21 17 -21 17 6 18 12 0 16 -1 9 -4z
m-1216 -75 l19 -23 -25 20 c-14 11 -27 21 -29 22 -2 2 0 3 6 3 5 0 18 -10 29
-22z m-1 -36 c6 2 11 -27 12 -65 2 -43 -1 -66 -7 -62 -6 4 -8 10 -5 15 3 5 1
12 -5 15 -6 4 -9 1 -8 -6 2 -7 -2 -13 -9 -14 -18 0 -24 -11 -25 -42 -1 -25 -5
-29 -29 -28 -15 0 -32 8 -39 19 -7 11 -8 16 -1 11 10 -6 16 33 12 78 -1 9 3
17 10 17 8 0 8 5 -2 18 -11 13 -9 13 9 -2 17 -15 25 -17 34 -8 10 10 10 17 0
33 -8 12 -9 18 -3 14 6 -3 11 -1 11 5 0 6 5 8 10 5 6 -3 10 2 11 12 0 17 1 17
8 0 4 -10 11 -17 16 -15z m-234 9 c4 -1 6 -11 5 -23 -1 -13 -6 -22 -12 -21 -5
1 -11 -8 -11 -19 -2 -19 -1 -19 11 -3 9 13 15 15 20 7 4 -7 3 -12 -2 -12 -5 0
-8 -14 -7 -31 2 -25 -1 -30 -17 -26 -21 6 -34 -8 -17 -19 8 -5 9 -3 4 6 -5 9
-4 11 4 6 6 -4 9 -12 6 -17 -4 -5 -2 -9 4 -9 5 0 12 6 15 13 3 6 3 1 -1 -13
-3 -14 -7 -34 -8 -45 -1 -11 -3 -24 -4 -29 0 -5 -10 1 -20 13 -11 12 -18 31
-16 42 2 10 -2 19 -8 19 -8 0 -8 3 -2 8 13 9 18 55 6 48 -12 -8 -2 35 13 53 8
11 8 13 -1 8 -16 -10 -22 4 -12 30 5 13 15 20 26 18 10 -2 21 -4 24 -4z m179
-56 c0 -12 -20 6 -31 28 l-11 22 21 -22 c11 -12 21 -25 21 -28z m175 -75 c3
-5 1 -10 -4 -10 -6 0 -11 5 -11 10 0 6 2 10 4 10 3 0 8 -4 11 -10z m-1701 -30
c-6 -6 -10 -3 -10 10 0 13 4 16 10 10 7 -7 7 -13 0 -20z m2681 10 c3 -5 1 -10
-4 -10 -6 0 -11 5 -11 10 0 6 2 10 4 10 3 0 8 -4 11 -10z m-1344 -100 c13 7
19 7 19 0 0 -5 -7 -10 -15 -10 -8 0 -15 -5 -15 -11 0 -6 8 -8 18 -5 14 5 14 4
-2 -9 -17 -13 -15 -19 5 -17 3 1 6 -5 6 -13 0 -8 -7 -11 -16 -7 -13 5 -14 3
-4 -10 11 -12 9 -18 -7 -33 -11 -10 -21 -16 -21 -14 -1 2 -2 24 -3 49 -1 25
-5 51 -9 58 -5 7 -4 12 2 12 6 0 8 8 5 18 -5 16 -5 16 6 -1 9 -13 15 -15 31
-7z m-1771 -100 c0 -5 -5 -10 -11 -10 -5 0 -7 5 -4 10 3 6 8 10 11 10 2 0 4
-4 4 -10z m1967 -87 c1 -47 -2 -63 -14 -67 -12 -5 -13 -9 -3 -22 9 -10 10 -18
3 -25 -6 -6 -10 -4 -11 6 -1 8 -3 22 -4 30 -1 8 -8 15 -15 15 -8 0 -13 -6 -12
-12 5 -38 -2 -48 -32 -48 -17 0 -28 4 -24 10 3 6 1 10 -6 10 -7 0 -5 8 7 22
10 12 14 19 8 15 -7 -4 -11 7 -12 28 -1 34 2 38 41 38 9 0 17 5 16 11 -5 41 2
53 29 51 26 -1 27 -3 29 -62z m302 37 c-6 -5 -18 -6 -26 -3 -19 8 -16 11 13
11 17 0 22 -3 13 -8z m-21 -35 c-3 -3 -9 2 -12 12 -6 14 -5 15 5 6 7 -7 10
-15 7 -18z m-1452 -29 c0 -13 -4 -22 -8 -19 -5 2 -8 -1 -8 -6 0 -6 -5 -11 -12
-11 -6 0 -8 3 -5 6 3 4 2 16 -4 28 -9 19 -9 20 4 3 14 -17 15 -16 20 3 7 28
15 25 13 -4z m1320 -14 c-17 -16 -18 -16 -5 5 7 12 15 20 18 17 3 -2 -3 -12
-13 -22z m-1037 -109 c-12 -15 -12 -16 4 -10 9 3 17 2 17 -3 0 -14 -27 -13
-36 1 -3 6 0 15 7 20 21 13 23 11 8 -8z m65 8 c9 -14 -3 -38 -18 -38 -8 0 -11
9 -8 24 4 24 16 30 26 14z m33 -16 c0 -8 -4 -12 -9 -9 -4 3 -8 9 -8 15 0 5 4
9 8 9 5 0 9 -7 9 -15z m1440 -100 c0 -8 -6 -16 -14 -19 -11 -4 -11 -1 -3 14
13 24 17 25 17 5z m-2237 -9 c0 -2 -7 -7 -16 -10 -8 -3 -12 -2 -9 4 6 10 25
14 25 6z m1813 -234 c4 9 6 9 6 1 2 -20 -16 -24 -30 -5 -13 15 -12 16 3 4 13
-10 17 -10 21 0z m-1293 -46 c0 -2 -8 -10 -17 -17 -16 -13 -17 -12 -4 4 13 16
21 21 21 13z m900 -76 c0 -5 -10 -15 -22 -21 l-23 -12 20 21 c23 24 25 25 25
12z"/>
<path d="M3942 4538 c7 -15 15 -23 17 -17 2 6 -4 18 -13 27 -15 15 -15 15 -4
-10z"/>
<path d="M4132 4530 c13 -20 28 -27 28 -12 0 12 -14 27 -28 30 -10 2 -10 -2 0
-18z"/>
<path d="M3975 4531 c-3 -5 -2 -12 3 -15 5 -3 9 1 9 9 0 17 -3 19 -12 6z"/>
<path d="M4103 4526 c0 -7 6 -13 14 -13 7 0 13 4 13 8 0 4 -6 9 -13 12 -8 3
-14 0 -14 -7z"/>
<path d="M3846 4418 c3 -5 10 -6 15 -3 13 9 11 12 -6 12 -8 0 -12 -4 -9 -9z"/>
<path d="M3884 4369 c1 -33 21 -34 23 -1 1 16 -2 20 -7 12 -6 -10 -9 -9 -13 1
-2 8 -4 2 -3 -12z"/>
<path d="M4020 4373 c0 -6 8 -17 18 -24 16 -13 16 -13 2 6 -8 11 -16 22 -17
24 -2 2 -3 0 -3 -6z"/>
<path d="M3550 4102 c0 -7 4 -12 9 -12 12 0 8 -24 -7 -42 -9 -11 -7 -14 13
-14 13 0 23 5 22 11 -1 5 5 10 14 9 9 -1 16 5 16 12 0 7 -4 11 -9 8 -5 -4 -20
4 -34 17 -13 12 -24 17 -24 11z m34 -31 c3 -5 -2 -15 -12 -22 -15 -12 -16 -12
-5 2 7 9 10 19 6 22 -3 4 -4 7 0 7 3 0 8 -4 11 -9z"/>
<path d="M3590 4100 c0 -5 5 -10 10 -10 6 0 10 5 10 10 0 6 -4 10 -10 10 -5 0
-10 -4 -10 -10z"/>
<path d="M3473 3934 c-6 -15 11 -34 32 -34 6 0 4 4 -4 9 -7 5 -9 11 -5 13 5 3
3 3 -5 1 -8 -2 -11 2 -7 12 3 8 3 15 0 15 -2 0 -7 -7 -11 -16z"/>
<path d="M3518 3943 c7 -3 16 -2 19 1 4 3 -2 6 -13 5 -11 0 -14 -3 -6 -6z"/>
<path d="M3480 3860 c-9 -6 -10 -10 -3 -10 6 0 15 5 18 10 8 12 4 12 -15 0z"/>
<path d="M3509 3692 c9 -7 10 -11 2 -15 -7 -4 -8 -5 -1 -3 16 2 14 20 -2 24
-10 3 -10 2 1 -6z"/>
<path d="M3336 3498 c3 -4 11 -5 19 -1 21 7 19 12 -4 10 -11 0 -18 -5 -15 -9z"/>
<path d="M3704 3393 c2 -9 8 -19 14 -21 14 -4 15 0 6 22 -8 21 -23 20 -20 -1z"/>
<path d="M3515 3390 c3 -5 8 -10 11 -10 2 0 4 5 4 10 0 6 -5 10 -11 10 -5 0
-7 -4 -4 -10z"/>
<path d="M3536 3144 c-9 -8 -16 -20 -16 -26 0 -6 1 -9 3 -7 1 2 11 14 21 27
22 25 16 30 -8 6z"/>
<path d="M3590 3140 c0 -5 5 -10 10 -10 6 0 10 5 10 10 0 6 -4 10 -10 10 -5 0
-10 -4 -10 -10z"/>
<path d="M4310 2042 c0 -4 9 -8 20 -9 11 -1 20 2 20 5 0 4 -9 8 -20 9 -11 1
-20 -2 -20 -5z"/>
<path d="M5830 1926 c0 -2 7 -9 15 -16 13 -11 14 -10 9 4 -5 14 -24 23 -24 12z"/>
<path d="M2675 1801 c-3 -5 -2 -12 3 -15 5 -3 9 1 9 9 0 17 -3 19 -12 6z"/>
<path d="M4454 1616 c1 -8 5 -18 8 -22 4 -3 5 1 4 10 -1 8 -5 18 -8 22 -4 3
-5 -1 -4 -10z"/>
<path d="M4490 1620 c0 -5 5 -10 11 -10 5 0 7 5 4 10 -3 6 -8 10 -11 10 -2 0
-4 -4 -4 -10z"/>
<path d="M4447 1507 c4 -7 -1 -8 -12 -3 -14 5 -16 4 -7 -7 7 -8 9 -17 5 -20
-3 -4 -4 -7 -1 -7 3 0 13 11 21 23 12 19 13 24 2 24 -8 0 -11 -5 -8 -10z"/>
<path d="M4275 1420 c3 -5 8 -10 11 -10 2 0 4 5 4 10 0 6 -5 10 -11 10 -5 0
-7 -4 -4 -10z"/>
<path d="M4253 1395 c0 -8 4 -12 9 -9 4 3 8 9 8 15 0 5 -4 9 -8 9 -5 0 -9 -7
-9 -15z"/>
<path d="M4258 1258 c5 -5 16 -8 23 -6 8 3 3 7 -10 11 -17 4 -21 3 -13 -5z"/>
<path d="M4254 1176 c1 -14 7 -31 13 -37 9 -9 11 -5 9 15 -4 36 -23 56 -22 22z"/>
<path d="M4254 1061 c0 -17 4 -31 9 -31 4 0 5 12 3 26 -7 38 -14 40 -12 5z"/>
<path d="M4259 1018 c0 -2 -2 -11 -4 -21 -3 -15 -1 -16 11 -6 7 6 11 15 8 20
-5 9 -13 12 -15 7z"/>
<path d="M4399 873 c-13 -16 -12 -17 4 -4 9 7 17 15 17 17 0 8 -8 3 -21 -13z"/>
<path d="M3767 4984 c3 -8 10 -11 16 -7 6 3 7 1 3 -6 -6 -9 -11 -9 -22 0 -11
9 -14 8 -14 -6 0 -10 3 -15 7 -12 3 4 12 2 20 -4 7 -6 13 -10 14 -8 8 42 7 47
-10 52 -14 3 -18 1 -14 -9z"/>
<path d="M3632 4893 c-15 -13 -15 -13 3 -5 11 6 24 10 28 10 16 0 17 9 2 9 -9
0 -23 -7 -33 -14z"/>
<path d="M3335 4541 c-3 -5 -2 -12 3 -15 5 -3 9 1 9 9 0 17 -3 19 -12 6z"/>
<path d="M4695 4501 c-3 -5 -2 -12 3 -15 5 -3 9 1 9 9 0 17 -3 19 -12 6z"/>
<path d="M4692 4441 c-11 -7 -11 -9 1 -14 16 -6 27 0 27 15 0 10 -11 10 -28
-1z"/>
<path d="M3214 3876 c1 -8 5 -18 8 -22 4 -3 5 1 4 10 -1 8 -5 18 -8 22 -4 3
-5 -1 -4 -10z"/>
<path d="M3223 3821 c10 -12 9 -14 -3 -9 -13 5 -16 -7 -15 -82 0 -74 2 -87 15
-82 11 4 11 1 -3 -15 -14 -16 -15 -22 -5 -26 8 -4 9 -8 3 -14 -6 -4 -10 -47
-10 -94 0 -69 3 -85 14 -81 11 4 11 1 2 -19 l-12 -24 18 24 c12 17 18 44 18
98 1 46 -2 68 -7 58 -5 -8 -14 -15 -20 -15 -9 0 -9 3 -1 11 6 6 9 18 6 27 -4
10 -2 13 5 8 6 -3 14 -1 18 5 5 8 3 9 -6 4 -10 -6 -12 -4 -7 9 5 11 3 15 -4
10 -7 -4 -10 -1 -7 7 3 8 11 13 17 12 6 -2 11 2 11 7 0 6 -5 10 -12 10 -9 0
-9 3 0 12 7 7 12 17 12 23 0 5 -5 2 -11 -7 -5 -10 -14 -18 -19 -18 -16 0 -6
24 15 38 19 12 19 12 1 10 -10 -2 -21 4 -23 12 -3 11 -2 11 4 3 5 -7 14 -9 22
-4 9 6 6 10 -11 15 -19 5 -20 8 -8 16 8 5 11 10 6 10 -5 0 -1 9 9 20 14 15 15
23 6 34 -9 11 -9 15 1 19 7 3 3 4 -9 4 -18 -1 -20 -4 -10 -16z m6 -37 c-14
-13 -16 -13 -16 0 0 8 4 13 9 10 4 -3 8 0 8 7 0 7 3 9 7 5 4 -3 0 -13 -8 -22z
m6 -303 c0 -41 -3 -57 -10 -51 -17 14 -10 110 8 110 1 0 2 -27 2 -59z"/>
<path d="M4444 3812 c-5 -4 -10 -16 -12 -27 -2 -14 0 -16 6 -7 5 7 16 10 25 6
11 -4 17 -1 17 9 0 17 -22 28 -36 19z"/>
<path d="M4386 3723 c-6 -14 -5 -15 5 -6 7 7 10 15 7 18 -3 3 -9 -2 -12 -12z"/>
<path d="M3236 3383 c-6 -14 -5 -15 5 -6 7 7 10 15 7 18 -3 3 -9 -2 -12 -12z"/>
<path d="M3274 3145 c1 -8 6 -18 11 -22 4 -4 5 -3 2 4 -4 6 -2 13 5 15 8 3 6
6 -4 10 -10 4 -15 2 -14 -7z"/>
<path d="M3390 2896 c0 -2 8 -10 18 -17 15 -13 16 -12 3 4 -13 16 -21 21 -21
13z"/>
<path d="M3717 2530 c5 -21 4 -23 -9 -13 -12 10 -15 10 -15 -2 0 -8 2 -13 5
-10 3 2 12 0 21 -4 13 -7 16 -3 17 21 1 16 -2 24 -6 18 -6 -9 -9 -9 -14 1 -3
8 -3 3 1 -11z"/>
<path d="M3712 2251 c7 -9 13 -18 15 -20 1 -2 1 5 0 16 0 11 -7 20 -14 20 -10
0 -10 -4 -1 -16z"/>
<path d="M3706 2201 c4 -17 3 -21 -6 -16 -9 6 -11 4 -5 -4 5 -9 11 -9 17 -3 7
7 6 16 -1 29 -11 16 -11 15 -5 -6z"/>
<path d="M2115 2161 c-3 -5 -2 -12 3 -15 5 -3 9 1 9 9 0 17 -3 19 -12 6z"/>
<path d="M3716 2147 c3 -10 9 -15 12 -12 3 3 0 11 -7 18 -10 9 -11 8 -5 -6z"/>
<path d="M3696 2122 c-3 -5 1 -9 9 -9 8 0 12 4 9 9 -3 4 -7 8 -9 8 -2 0 -6 -4
-9 -8z"/>
<path d="M4564 2072 c3 -6 0 -13 -6 -15 -10 -4 -10 -6 0 -6 7 -1 11 -5 8 -9
-2 -4 5 -9 16 -9 20 -2 20 -1 2 13 -17 14 -17 15 -1 10 24 -7 21 1 -4 15 -13
6 -19 7 -15 1z"/>
<path d="M2375 2059 c-4 -6 -4 -13 -1 -16 3 -4 6 -1 6 7 0 10 4 10 18 -1 15
-13 16 -12 3 4 -16 20 -18 20 -26 6z"/>
<path d="M3695 2060 c-3 -5 -1 -10 4 -10 6 0 11 5 11 10 0 6 -2 10 -4 10 -3 0
-8 -4 -11 -10z"/>
<path d="M5590 2060 c-12 -7 -10 -9 7 -7 12 0 19 5 17 9 -6 10 -6 10 -24 -2z"/>
<path d="M2429 2008 c-6 -22 -5 -36 5 -34 19 3 36 17 36 29 0 7 -4 6 -10 -3
-6 -10 -10 -11 -10 -2 0 10 -18 18 -21 10z"/>
<path d="M3695 1980 c-3 -5 -1 -10 4 -10 6 0 11 5 11 10 0 6 -2 10 -4 10 -3 0
-8 -4 -11 -10z"/>
<path d="M3695 1880 c3 -5 8 -10 11 -10 2 0 4 5 4 10 0 6 -5 10 -11 10 -5 0
-7 -4 -4 -10z"/>
<path d="M5341 1883 c-1 -7 8 -17 19 -23 14 -7 20 -7 20 0 0 5 -6 10 -14 10
-8 0 -17 6 -19 13 -4 9 -6 9 -6 0z"/>
<path d="M2630 1869 c0 -5 5 -7 10 -4 6 3 10 8 10 11 0 2 -4 4 -10 4 -5 0 -10
-5 -10 -11z"/>
<path d="M2123 1853 c-7 -3 -13 -9 -13 -15 0 -6 7 -4 17 3 15 12 16 12 9 -6
-6 -16 -5 -18 5 -7 15 14 1 32 -18 25z"/>
<path d="M3697 1847 c-3 -8 1 -14 8 -14 7 0 11 6 8 14 -3 7 -6 13 -8 13 -2 0
-5 -6 -8 -13z"/>
<path d="M5843 1832 c10 -10 14 -22 10 -27 -5 -4 -2 -5 4 -1 10 5 10 11 0 26
-6 11 -16 20 -21 20 -5 0 -2 -8 7 -18z"/>
<path d="M2122 1804 c10 -10 20 -15 24 -12 3 4 -5 12 -18 18 -22 12 -22 12 -6
-6z"/>
<path d="M2110 1780 c0 -5 5 -10 11 -10 5 0 7 5 4 10 -3 6 -8 10 -11 10 -2 0
-4 -4 -4 -10z"/>
<path d="M5834 1775 c3 -23 12 -26 13 -5 1 11 -2 20 -7 20 -4 0 -7 -7 -6 -15z"/>
<path d="M3716 1753 c-6 -14 -5 -15 5 -6 7 7 10 15 7 18 -3 3 -9 -2 -12 -12z"/>
<path d="M2130 1720 c0 -5 5 -10 11 -10 5 0 7 5 4 10 -3 6 -8 10 -11 10 -2 0
-4 -4 -4 -10z"/>
<path d="M2870 1696 c0 -2 8 -10 18 -17 15 -13 16 -12 3 4 -13 16 -21 21 -21
13z"/>
<path d="M2916 1641 c-7 -10 6 -16 27 -12 5 1 6 -9 2 -21 -5 -21 -5 -21 6 -5
8 14 8 22 0 30 -6 6 -11 7 -11 2 0 -6 -4 -4 -9 4 -6 9 -11 10 -15 2z"/>
<path d="M3695 1560 c3 -5 8 -10 11 -10 2 0 4 5 4 10 0 6 -5 10 -11 10 -5 0
-7 -4 -4 -10z"/>
<path d="M5803 1556 c3 -7 0 -20 -6 -27 -10 -11 -9 -11 5 0 15 11 15 41 1 41
-3 0 -3 -6 0 -14z"/>
<path d="M3697 1527 c-3 -8 1 -14 8 -14 7 0 11 6 8 14 -3 7 -6 13 -8 13 -2 0
-5 -6 -8 -13z"/>
<path d="M4854 1439 c0 -14 3 -16 15 -6 8 7 16 11 18 10 1 -2 2 0 1 4 -6 15
-34 8 -34 -8z"/>
<path d="M3716 1433 c-6 -14 -5 -15 5 -6 7 7 10 15 7 18 -3 3 -9 -2 -12 -12z"/>
<path d="M4860 1410 c-9 -6 -10 -10 -3 -10 6 0 15 5 18 10 8 12 4 12 -15 0z"/>
<path d="M5729 1363 c-13 -16 -12 -17 4 -4 9 7 17 15 17 17 0 8 -8 3 -21 -13z"/>
<path d="M2237 1349 c7 -7 15 -10 18 -7 3 3 -2 9 -12 12 -14 6 -15 5 -6 -5z"/>
<path d="M3696 1322 c-3 -5 1 -9 9 -9 8 0 12 4 9 9 -3 4 -7 8 -9 8 -2 0 -6 -4
-9 -8z"/>
<path d="M3695 1260 c3 -5 8 -10 11 -10 2 0 4 5 4 10 0 6 -5 10 -11 10 -5 0
-7 -4 -4 -10z"/>
<path d="M2976 1134 c-3 -8 0 -16 6 -20 7 -4 8 -3 4 4 -4 7 -1 12 9 12 12 0
15 -5 10 -17 -4 -13 -3 -15 5 -7 14 14 4 41 -15 41 -8 0 -16 -6 -19 -13z"/>
<path d="M3693 1097 c-3 -6 -1 -7 5 -3 5 3 12 1 14 -6 3 -8 6 -7 10 3 7 17
-19 22 -29 6z"/>
<path d="M2445 1072 c-5 -4 -11 -16 -12 -27 -1 -11 0 -14 3 -7 3 6 9 10 13 8
4 -3 7 4 7 15 0 10 0 19 -1 19 0 0 -4 -4 -10 -8z"/>
<path d="M3036 1058 c3 -5 10 -6 15 -3 13 9 11 12 -6 12 -8 0 -12 -4 -9 -9z"/>
<path d="M3695 1040 c-3 -5 -1 -10 4 -10 6 0 11 5 11 10 0 6 -2 10 -4 10 -3 0
-8 -4 -11 -10z"/>
<path d="M3725 982 c-12 -8 -17 -44 -5 -37 6 4 22 45 17 45 -1 0 -6 -4 -12 -8z"/>
<path d="M3700 920 c-9 -6 -10 -10 -3 -10 6 0 15 5 18 10 8 12 4 12 -15 0z"/>
<path d="M3713 874 c0 -7 6 -10 14 -7 7 3 13 8 13 12 0 4 -6 8 -13 8 -8 0 -14
-6 -14 -13z"/>
<path d="M3400 840 c0 -5 6 -9 13 -7 6 1 11 -6 11 -15 -1 -10 4 -14 12 -11 16
6 19 23 3 23 -5 0 -7 5 -4 10 3 6 -3 10 -14 10 -12 0 -21 -4 -21 -10z"/>
<path d="M3480 840 c-9 -6 -10 -10 -3 -10 6 0 15 5 18 10 8 12 4 12 -15 0z"/>
<path d="M2975 511 c-3 -5 -2 -12 3 -15 5 -3 9 1 9 9 0 17 -3 19 -12 6z"/>
<path d="M3207 399 c7 -7 15 -10 18 -7 3 3 -2 9 -12 12 -14 6 -15 5 -6 -5z"/>
<path d="M4556 351 c-4 -6 -6 -11 -4 -12 32 -7 48 -7 54 3 5 7 2 9 -8 5 -9 -3
-20 -1 -26 5 -6 6 -12 6 -16 -1z"/>
<path d="M3395 327 c-17 -13 -17 -14 1 -19 14 -4 20 0 20 13 0 11 -1 19 -1 19
-1 0 -9 -6 -20 -13z"/>
<path d="M3510 280 c0 -5 5 -10 11 -10 5 0 7 5 4 10 -3 6 -8 10 -11 10 -2 0
-4 -4 -4 -10z"/>
<path d="M3670 280 c0 -5 5 -10 11 -10 5 0 7 5 4 10 -3 6 -8 10 -11 10 -2 0
-4 -4 -4 -10z"/>
<path d="M4370 278 c0 -5 5 -6 10 -3 10 6 15 -9 10 -30 -1 -5 4 -4 11 2 21 21
18 38 -7 39 -13 1 -24 -2 -24 -8z"/>
</g>
</svg>
